<svg width="65" height="55" viewBox="0 0 65 55" fill="none" xmlns="http://www.w3.org/2000/svg">
<path d="M19.266 38.2407C14.274 38.2407 9.2365 37.5504 5.6095 36.2022C2.5805 35.0733 0.4875 33.4606 0.078 31.3576C0.013 30.7641 0 30.4287 0 29.8288C0 29.8288 0 9.57307 0 7.73458C0 7.45719 0.0455 7.16045 0.078 6.88306C0.4875 4.78654 2.5805 3.17382 5.6095 2.04492C9.2365 0.696692 14.274 0 19.266 0C24.2515 0 29.2955 0.696692 32.9225 2.04492C35.9515 3.17382 38.0445 4.78654 38.454 6.88306L38.532 30.5964L38.4605 31.3576C38.0445 33.4606 35.9515 35.0733 32.9225 36.2022C29.2955 37.5504 24.2515 38.2407 19.266 38.2407ZM52.091 55C56.654 55 60.3655 51.3166 60.3655 46.7881C60.3655 46.5107 60.346 46.2333 60.32 45.9624H65V44.2464V41.9499H64.9935L64.9805 31.6737L60.5085 17.8818H40V41.9499H32.448C30.94 39.9114 28.509 38.5826 25.7725 38.5826C21.2095 38.5826 17.498 42.266 17.498 46.7881C17.498 51.3166 21.2095 55 25.766 55C30.329 55 34.0405 51.3166 34.0405 46.7881C34.0405 46.4075 34.0145 46.0333 33.9625 45.6721L43.888 45.7688C43.8425 46.1043 43.823 46.4462 43.823 46.7881C43.823 51.3166 47.5345 55 52.091 55ZM58.7665 41.9499C57.265 39.9114 54.834 38.5826 52.091 38.5826C49.3545 38.5826 46.9235 39.9114 45.4155 41.9499H43.6995V21.391H51V30.1126V31.9253V34.067H60.9115V41.9499H58.7665ZM52.091 41.9499C55 42 56.7487 44.4787 56.7487 46.7881C56.7487 49.5 55 51.5 52.091 51.5C49.5 51.5 47.2692 49.8331 47.2692 46.7881C47.2692 43.8576 49 42 52.091 41.9499ZM8.268 55C12.831 55 16.5425 51.3166 16.5425 46.7881C16.5425 42.266 12.831 38.5826 8.2745 38.5826C3.7115 38.5826 0 42.266 0 46.7881C0 51.3166 3.7115 55 8.268 55ZM25.766 41.9499C28.5 42 30.5 44.0761 30.5 46.7881C30.5 49.5 28.532 51.5 25.766 51.5C23 51.5 21 49.5 21 46.7881C21 44.4787 22.5002 41.8901 25.766 41.9499ZM8.268 41.9499C10.9265 41.9499 13 44 13 46.7881C13 49.0975 11 51.5 8.2745 51.5C5.549 51.5 3.5 49.0975 3.5 46.7881C3.5 44 5.6095 41.9499 8.268 41.9499ZM54 31V21.391H57.9215L60.3655 31H54ZM3.861 19.488C3.9 20.1783 5.59 21.1459 8.5345 21.9781C11.2255 22.7393 14.885 23.2811 19.266 23.2811C23.647 23.2811 27.3065 22.7393 29.9975 21.9781C32.981 21.133 34.6775 20.1525 34.6775 19.4622V18.4236V16.7593V12.4953C33.9365 12.8759 33.1045 13.2114 32.2075 13.5145C28.6585 14.6951 23.946 15.295 19.2725 15.3014H19.266C14.274 15.3014 9.2365 14.6112 5.6095 13.2565C4.9855 13.0243 4.394 12.7727 3.8545 12.4953V16.7916V19.488H3.861ZM34.6775 24.3068C33.9365 24.6874 33.1045 25.0229 32.2075 25.3196C28.6585 26.5001 23.946 27.1065 19.2725 27.1065L19.266 27.113C14.274 27.113 9.2365 26.4163 5.6095 25.068C4.9855 24.8358 4.4005 24.5842 3.8545 24.3068V30.5964C3.8545 31.2867 5.551 32.2672 8.5345 33.1122C11.2255 33.8734 14.8785 34.4153 19.266 34.4153C23.6535 34.4153 27.3065 33.8734 29.9975 33.1122C32.981 32.2672 34.6775 31.2867 34.6775 30.5964V24.3068ZM19.266 3.83181C14.8785 3.83181 11.2255 4.37368 8.5345 5.13488C5.551 5.97994 3.8545 6.96047 3.8545 7.65072C3.8545 8.34096 5.551 9.32149 8.5345 10.173C11.2255 10.9342 14.8785 11.4761 19.266 11.4761C23.6535 11.4761 27.3065 10.9342 29.9975 10.173C32.981 9.32149 34.6775 8.34096 34.6775 7.65072C34.6775 6.96047 32.981 5.97994 29.9975 5.13488C27.3065 4.37368 23.6535 3.83181 19.266 3.83181Z" fill="#004578"/>
</svg>
