<svg width="25" height="17" viewBox="0 0 25 17" fill="none" xmlns="http://www.w3.org/2000/svg">
<path fill-rule="evenodd" clip-rule="evenodd" d="M0.25 8.45027C0.25 9.00877 0.758 9.59527 1.143 10.1073C1.982 11.2248 3.0265 12.4213 4.107 13.2933C5.991 14.8138 7.4515 15.6568 9.749 16.2513C11.3615 16.6683 13.5975 16.6553 15.211 16.2613C17.336 15.7428 19.712 14.4728 21.187 13.0373C21.322 12.9058 21.402 12.8743 21.5385 12.7388C22.239 12.0458 24.75 9.36427 24.75 8.55027C24.75 7.94727 24.179 7.32127 23.836 6.86427C23.6445 6.60977 23.4955 6.39777 23.289 6.16127C23.1885 6.04627 23.086 5.92277 22.993 5.80727C22.87 5.65477 22.8135 5.60327 22.688 5.46227C21.9855 4.67177 21.8465 4.58677 21.1125 3.88777C20.979 3.76027 20.8995 3.71877 20.7625 3.58777C20.547 3.38177 20.2775 3.21277 20.035 3.01527C19.2595 2.38427 17.704 1.57477 16.779 1.22127C16.1425 0.977773 15.5025 0.795273 14.796 0.654273C14.413 0.578274 14.142 0.540273 13.709 0.491273L12.5 0.405273C11.995 0.405273 10.699 0.555273 10.246 0.646273C8.641 0.967273 7.089 1.59027 5.74 2.49027C5.488 2.65827 5.195 2.82827 4.965 3.01527L3.9385 3.83877C3.8735 3.89627 3.854 3.92727 3.785 3.98527C3.6935 4.06277 3.6815 4.05577 3.588 4.13827L2.335 5.43527C1.8195 6.04877 0.25 7.80227 0.25 8.45027ZM2.578 8.45627C2.578 8.90877 2.9895 9.38377 3.3015 9.79877C3.981 10.7038 4.827 11.6728 5.702 12.3793C7.228 13.6108 8.411 14.2933 10.272 14.7748C11.578 15.1128 13.389 15.1023 14.696 14.7828C16.4165 14.3628 18.3415 13.3343 19.536 12.1718C19.645 12.0653 19.71 12.0393 19.8205 11.9298C20.388 11.3683 22.422 9.19677 22.422 8.53777C22.422 8.04927 21.959 7.54177 21.6815 7.17227C21.5265 6.96577 21.4055 6.79427 21.2385 6.60277C21.157 6.50977 21.074 6.40927 20.9985 6.31577C20.899 6.19227 20.8535 6.15077 20.7515 6.03627C20.1825 5.39627 20.07 5.32727 19.4755 4.76127C19.3675 4.65827 19.303 4.62427 19.192 4.51827C19.0175 4.35127 18.799 4.21427 18.603 4.05427C17.975 3.54327 16.715 2.88777 15.966 2.60127C15.45 2.40427 14.932 2.25627 14.3595 2.14227C14.0495 2.08077 13.83 2.04977 13.4795 2.01027L12.5 1.94077C12.091 1.94077 11.0415 2.06227 10.674 2.13577C9.3745 2.39577 8.1175 2.90027 7.025 3.62927C6.8205 3.76527 6.583 3.90327 6.397 4.05427L5.5655 4.72127C5.513 4.76827 5.497 4.79277 5.4415 4.84027C5.367 4.90277 5.3575 4.89727 5.2815 4.96377L4.267 6.01477C3.8495 6.51127 2.578 7.93127 2.578 8.45627Z" fill="#E3E3E4"/>
<path fill-rule="evenodd" clip-rule="evenodd" d="M8 8.58333C8 9.76636 8.52249 10.9995 9.34742 11.8248C9.94339 12.4209 10.7382 12.8472 11.5673 13.046C12.5656 13.2857 13.5481 13.1569 14.469 12.7601C15.215 12.4388 15.8844 11.8545 16.3432 11.1929C17.2794 9.84285 17.4145 8.21534 16.7629 6.70128C16.6282 6.3881 16.3326 5.91897 16.1023 5.66231C15.3836 4.85918 14.718 4.38707 13.608 4.12063C12.6098 3.88097 11.6272 4.00972 10.7063 4.40662C10.3932 4.54132 9.92428 4.83708 9.66771 5.0674C8.86486 5.78639 8.39293 6.45227 8.12659 7.56263C8.06966 7.79975 8 8.2999 8 8.58333Z" fill="#E3E3E4"/>
</svg>
