<svg width="137" height="65" viewBox="0 0 137 65" fill="none" xmlns="http://www.w3.org/2000/svg">
<path d="M42.5056 42.4968H51.1381V45.3001H47.0319V64.9995H42.5056V42.4968Z" fill="#0079C2"/>
<path d="M56.2569 56.5521L57.0325 45.3006H57.2926L58.0681 56.5521H56.2569ZM51.245 65H55.6764L56.0955 59.0243H58.23L58.651 65H63.0805L60.72 42.4973H53.6055L51.245 65Z" fill="#0079C2"/>
<path d="M69.5628 57.1235V61.3658C69.5628 61.9377 70.0082 62.1037 70.2683 62.1037C70.6949 62.1037 70.9919 61.7531 70.9919 61.3658V56.1271C70.9919 55.4264 70.8623 54.6518 69.1732 54.6518H67.3362V52.1806H69.2475C70.5279 52.1806 70.9915 51.8848 70.9915 50.5021V46.0384C70.9915 45.6511 70.6944 45.3001 70.2678 45.3001C70.0077 45.3001 69.5624 45.4475 69.5624 46.0384V49.7084H65.0347V46.5173C65.0347 44.95 65.2204 42.4968 68.3934 42.4968H72.1417C75.3143 42.4968 75.5192 44.95 75.5192 46.5173V50.1138C75.5192 52.5669 73.794 53.2314 72.4388 53.176V53.3978C75.4822 53.3239 75.5192 55.6477 75.5192 56.441V60.9785C75.5192 62.5645 75.3143 64.9995 72.1417 64.9995H68.3934C65.2204 64.9995 65.0347 62.5645 65.0347 60.9785V57.1235H69.5628Z" fill="#0079C2"/>
<path d="M78.4884 42.4968H88.9729V64.9995H84.4448V45.3001H83.0157V64.9995H78.488L78.4884 42.4968Z" fill="#0079C2"/>
<path d="M96.4698 54.8736V45.3001H97.0639C97.5462 45.3001 97.8984 45.706 97.8984 46.4258V53.7479C97.8984 54.4677 97.5462 54.8736 97.0639 54.8736H96.4698ZM91.9417 65H96.4698V57.3449H99.0679C102.222 57.3449 102.427 54.9103 102.427 53.3239V46.5174C102.427 44.95 102.222 42.4968 99.0679 42.4968H91.9421L91.9417 65Z" fill="#0079C2"/>
<path d="M111.352 61.3659C111.352 61.7532 111.055 62.1037 110.628 62.1037C110.368 62.1037 109.923 61.9378 109.923 61.3659V46.0384C109.923 45.4475 110.368 45.3001 110.628 45.3001C111.055 45.3001 111.352 45.6511 111.352 46.0384V61.3659ZM105.395 60.9785C105.395 62.5645 105.599 64.9995 108.755 64.9995H112.522C115.676 64.9995 115.881 62.5645 115.881 60.9785V46.5174C115.881 44.95 115.676 42.4968 112.522 42.4968H108.755C105.6 42.4968 105.395 44.95 105.395 46.5174V60.9785Z" fill="#0079C2"/>
<path d="M130.614 42.4968H136.515V64.9995H131.987V50.8889H131.819L129.482 65H125.863L123.543 50.8889H123.376V65H118.849V42.4973H124.731L127.682 58.3231L130.614 42.4968Z" fill="#0079C2"/>
<path d="M36.6384 11.7309C35.2523 5.69947 31.7781 0.793222 31.2995 0C30.5422 1.12474 27.772 5.45956 26.3635 10.2556C24.8249 15.6231 24.599 20.3815 25.1294 25.0483C25.6562 29.7333 27.6475 34.5474 27.6475 34.5474C28.7057 37.0564 30.2901 39.7676 31.322 41.0955C32.8339 39.1403 36.31 33.3121 37.3939 25.7128C37.9968 21.47 38.0226 17.7624 36.6384 11.7309ZM31.2995 39.583C30.6184 38.3104 29.5608 35.894 29.4607 32.131C29.4349 28.516 30.8949 25.3989 31.322 24.7531C31.7023 25.3984 32.9602 28.1101 33.1108 31.8172C33.2128 35.4327 32.0026 38.2913 31.2995 39.583ZM36.2356 21.968C36.1837 24.2732 35.9072 26.7082 35.5545 28.1654C35.6808 25.6569 35.3782 22.1339 34.7991 19.3674C34.2204 16.6191 32.5817 12.0081 31.2733 9.88644C30.065 11.9155 28.577 15.8993 27.7977 19.3488C27.0146 22.7979 26.9922 26.9849 26.9922 28.2393C26.7845 27.1881 26.2648 23.407 26.4112 19.626C26.5337 16.5084 27.2686 13.2811 27.6714 11.8053C29.2081 6.88048 30.9464 3.72665 31.2733 3.22821C31.6003 3.72665 33.7896 7.6179 34.9254 11.6942C36.0555 15.7705 36.2838 19.6808 36.2356 21.968Z" fill="#0079C2"/>
<path d="M33.6508 42.4969H23.1125V49.5243C23.1219 49.5243 23.1293 49.5062 23.1387 49.5062C25.6217 47.0344 29.6484 47.0344 32.1333 49.5062C34.6163 51.9588 34.6163 55.9617 32.1333 58.4329C32.1221 58.4515 32.1108 58.4515 32.1001 58.4701C32.087 58.4701 32.0739 58.4882 32.0627 58.5064C29.5853 60.9409 26.3491 62.1587 23.1125 62.1587C19.8614 62.1587 16.6103 60.9409 14.131 58.4697C9.7586 54.1348 9.24123 47.4027 12.5737 42.4964C13.0228 41.8325 13.5407 41.2057 14.131 40.6147C16.6103 38.1435 19.8614 36.9257 23.1125 36.9257V20.0305C10.6198 20.0305 0.493164 30.0829 0.493164 42.496C0.493164 54.909 10.6198 64.98 23.1125 64.98C29.6259 64.98 35.4939 62.2321 39.6207 57.8596V42.4955H33.6508" fill="#0079C2"/>
</svg>
