<?xml version="1.0" encoding="UTF-8"?>
<!DOCTYPE svg PUBLIC "-//W3C//DTD SVG 1.1//EN" "http://www.w3.org/Graphics/SVG/1.1/DTD/svg11.dtd">
<!-- Creator: CorelDRAW 2019 (64-Bit) -->
<svg xmlns="http://www.w3.org/2000/svg" xml:space="preserve" width="250px" height="250px" version="1.1" style="shape-rendering:geometricPrecision; text-rendering:geometricPrecision; image-rendering:optimizeQuality; fill-rule:evenodd; clip-rule:evenodd"
viewBox="0 0 250 250"
 xmlns:xlink="http://www.w3.org/1999/xlink"
 xmlns:xodm="http://www.corel.com/coreldraw/odm/2003">
 <defs>
  <style type="text/css">
   <![CDATA[
    .fil0 {fill:#004578;fill-rule:nonzero}
   ]]>
  </style>
 </defs>
 <g id="Слой_x0020_1">
  <metadata id="CorelCorpID_0Corel-Layer"/>
  <path class="fil0" d="M250 125c0,69.04 -55.96,125 -125,125 -69.04,0 -125,-55.96 -125,-125 0,-69.04 55.96,-125 125,-125 69.04,0 125,55.96 125,125zm-138.44 -35.92l-2.45 1.03c-3.08,-1.93 -4.45,-5.92 -9.73,-5.76 -4.45,0.13 -6.97,3.96 -9.13,6.12 -2.18,2.17 -5.92,4.57 -5.94,9.13 -0.02,4.54 3.48,6.53 5.67,9.17l-1 3.03c-9.62,0.74 -13.04,-0.95 -13.04,13.16 0,12.34 1.25,12.56 12.9,13.28l1.28 2.88c-7.89,8.07 -8.1,10.36 0.01,18.46 2.02,2.02 4.95,6.01 9.25,6.14 5.61,0.17 6.38,-4.13 9.71,-5.72l2.41 0.91c1.39,5.14 -0.79,8.05 3.17,11.37 2.57,2.16 19.54,4.58 22.79,-2.74 1.9,-4.29 -0.95,-7.37 1.88,-9.06 4.05,-2.42 4.36,6.33 12.39,5.14 3.02,-0.45 14.02,-9.77 13.98,-15.27 -0.03,-4.42 -3.78,-7.14 -5.72,-9.2l1.11 -2.95c11.66,-0.57 12.97,-1.18 12.98,-13.24 0,-13.88 -2.97,-12.39 -12.99,-13.18l-1.21 -2.95c2.44,-2.89 5.83,-4.49 5.83,-9.22 0.01,-4.67 -3.7,-6.88 -5.94,-9.13 -2.23,-2.23 -4.57,-6.04 -9.12,-6.13 -5.25,-0.11 -6.76,3.64 -9.71,5.72 -6.06,-1.92 -0.49,-4.74 -3.92,-10.31 -3.67,-5.96 -19.42,-4.36 -22.25,-2.02 -3.97,3.28 -2.1,5.97 -3.21,11.34zm10.28 13.95c-29.38,4.66 -22.64,48.26 6.61,44.03 11.01,-1.59 20.36,-12.06 18.64,-25.2 -1.43,-10.87 -12.2,-20.89 -25.25,-18.83zm-66.72 41.35c1.27,1.94 2.77,7.37 3.96,10.07 7.25,16.56 20.03,28.73 36.06,36.3 4.41,2.09 17.63,6.64 23.09,6.02 4.45,-0.51 5.14,-6.52 0.02,-7.66 -12.84,-2.84 -18.83,-2.92 -31.39,-12.23 -9.67,-7.15 -21.83,-22.17 -23.55,-33.89 1.87,0.92 4.15,3.21 6.77,0.72 4.33,-4.12 -3.48,-8.14 -7.27,-10.79 -2.11,-1.48 -3.88,-3.02 -6.07,-4.18 -2.34,2.24 -6.3,8.44 -8.47,11.49 -1.54,2.16 -2.3,5.48 0.38,6.9 3.27,1.74 5,-1.35 6.47,-2.75zm88.36 42.21c3.48,-8.49 -3.35,-9.39 -6.6,-4.68 -2.4,3.48 -5.43,8.24 -8.24,11.51 1.37,1.91 6.55,5.1 8.87,6.76 3.38,2.41 5.63,5.3 9.84,1.51 0.64,-4.3 -1.06,-4.65 -3.35,-6.56 0.24,-0.19 0.37,-0.34 1.09,-0.69l4.04 -1.36c18.32,-6.48 33.12,-20.12 41.28,-37.56 2.33,-4.99 6.52,-16.79 6.33,-23.03 -0.14,-4.96 -5.97,-5.71 -7.43,-1.8 -2.36,6.32 -0.06,14.64 -11.96,31.77 -5.78,8.3 -19.78,21.26 -33.87,24.13zm43.27 -79.53c-2.31,-1.24 -2.41,-2.03 -5.99,-1.47 -4.21,5.02 -1.13,6.3 2.87,9.07 3.21,2.23 6.22,4.7 9.66,6.71l5.63 -7.5c2,-2.74 4.86,-5.14 4.07,-9.56 -4.31,-3.64 -5.32,-1.52 -8.08,1.56 -0.74,-0.99 -4.08,-11.67 -8.92,-19.48 -7.06,-11.37 -18.75,-21.5 -31.22,-27.09 -4.65,-2.09 -17.49,-6.59 -22.96,-6 -4.39,0.48 -5,6.34 -0.79,7.56 9.45,2.73 17.23,1.26 31.73,12.07 9.21,6.88 20.59,19.15 24,34.13zm-80.95 -51.68c-22.99,7.63 -37.61,20.21 -46.85,40.51 -2.31,5.09 -6.76,17.87 -5.33,24.21 3.35,3.32 6.8,2.21 7.52,-3.2 0.56,-4.16 1.32,-7.7 2.51,-11.47 5.88,-18.49 23.8,-38.32 43.31,-42.08 -0.96,2.2 -3.05,4.64 -0.44,7 2.62,2.37 5.11,0.29 6.39,-1.48 2.64,-3.68 5.51,-8.36 8.47,-11.85 -1.4,-1.88 -9.13,-6.97 -11.66,-8.8 -1.84,-1.34 -5.3,-2.38 -6.81,0.46 -1.87,3.52 1.51,5.14 2.89,6.7z"/>
 </g>
</svg>
