<?xml version="1.0" encoding="UTF-8"?>
<!DOCTYPE svg PUBLIC "-//W3C//DTD SVG 1.1//EN" "http://www.w3.org/Graphics/SVG/1.1/DTD/svg11.dtd">
<!-- Creator: CorelDRAW 2019 (64-Bit) -->
<svg xmlns="http://www.w3.org/2000/svg" xml:space="preserve" width="510px" height="550px" version="1.1" style="shape-rendering:geometricPrecision; text-rendering:geometricPrecision; image-rendering:optimizeQuality; fill-rule:evenodd; clip-rule:evenodd"
viewBox="0 0 510 550"
 xmlns:xlink="http://www.w3.org/1999/xlink"
 xmlns:xodm="http://www.corel.com/coreldraw/odm/2003">
 <defs>
  <style type="text/css">
   <![CDATA[
    .fil1 {fill:white}
    .fil0 {fill:white;fill-rule:nonzero}
   ]]>
  </style>
 </defs>
 <g id="Слой_x0020_1">
  <metadata id="CorelCorpID_0Corel-Layer"/>
  <g id="_1614196497696">
   <path class="fil0" d="M257.98 34.32c-2.61,-1.42 -6.12,-0.76 -7.91,1.55 -2.17,2.78 -1.34,6.6 1.87,8.35l10.59 5.64c2.61,1.42 6.12,0.76 7.91,-1.55 2.17,-2.78 1.33,-6.6 -1.87,-8.35l-10.59 -5.64zm213.52 126.86c2.6,1.42 6.12,0.75 7.91,-1.55 2.16,-2.79 1.33,-6.61 -1.88,-8.36l-7.67 -4.09c-2.61,-1.42 -6.12,-0.76 -7.92,1.55 -2.16,2.78 -1.33,6.6 1.88,8.35l7.68 4.1zm-39.47 -21.03c2.61,1.42 6.12,0.76 7.92,-1.55 2.16,-2.78 1.33,-6.6 -1.88,-8.35l-10.59 -5.65c-2.61,-1.42 -6.12,-0.75 -7.92,1.56 -2.16,2.78 -1.33,6.6 1.88,8.35l10.59 5.64zm-42.37 -22.57c2.6,1.42 6.11,0.75 7.91,-1.55 2.16,-2.79 1.33,-6.61 -1.88,-8.36l-10.59 -5.64c-2.61,-1.42 -6.12,-0.76 -7.91,1.55 -2.17,2.78 -1.34,6.6 1.87,8.35l10.6 5.65zm-42.38 -22.58c2.6,1.43 6.11,0.76 7.91,-1.55 2.16,-2.78 1.33,-6.6 -1.88,-8.35l-10.59 -5.64c-2.6,-1.42 -6.12,-0.76 -7.91,1.55 -2.16,2.78 -1.33,6.6 1.87,8.35l10.6 5.64zm-42.38 -22.57c2.61,1.42 6.12,0.76 7.92,-1.55 2.16,-2.78 1.33,-6.6 -1.88,-8.35l-10.59 -5.64c-2.61,-1.42 -6.12,-0.76 -7.91,1.55 -2.17,2.78 -1.33,6.6 1.87,8.35l10.59 5.64z"/>
   <path class="fil0" d="M251.94 515.61c2.61,1.42 6.12,0.76 7.91,-1.55 2.17,-2.78 1.33,-6.6 -1.87,-8.35l-10.59 -5.64c-2.61,-1.43 -6.12,-0.76 -7.92,1.55 -2.16,2.78 -1.33,6.6 1.88,8.35l10.59 5.64zm-213.52 -126.85c-2.61,-1.43 -6.12,-0.76 -7.91,1.55 -2.17,2.78 -1.33,6.6 1.87,8.35l7.68 4.09c2.61,1.42 6.12,0.76 7.91,-1.55 2.17,-2.78 1.34,-6.6 -1.87,-8.35l-7.68 -4.09zm39.46 21.02c-2.6,-1.42 -6.11,-0.76 -7.91,1.55 -2.16,2.78 -1.33,6.6 1.88,8.35l10.59 5.65c2.61,1.42 6.12,0.75 7.91,-1.56 2.17,-2.78 1.33,-6.6 -1.87,-8.35l-10.6 -5.64zm42.38 22.57c-2.61,-1.42 -6.12,-0.75 -7.91,1.55 -2.16,2.79 -1.33,6.61 1.87,8.36l10.6 5.64c2.61,1.42 6.12,0.76 7.91,-1.55 2.16,-2.78 1.33,-6.6 -1.87,-8.35l-10.6 -5.65zm42.38 22.58c-2.61,-1.43 -6.12,-0.76 -7.91,1.55 -2.17,2.78 -1.33,6.6 1.87,8.35l10.59 5.64c2.61,1.42 6.12,0.76 7.92,-1.55 2.16,-2.78 1.33,-6.6 -1.88,-8.35l-10.59 -5.64zm42.37 22.57c-2.6,-1.43 -6.11,-0.76 -7.91,1.55 -2.16,2.78 -1.33,6.6 1.88,8.35l10.59 5.64c2.6,1.42 6.12,0.76 7.91,-1.55 2.16,-2.78 1.33,-6.6 -1.87,-8.35l-10.6 -5.64z"/>
   <path class="fil0" d="M257.98 271.8c-2.61,-1.42 -6.12,-0.75 -7.91,1.55 -2.17,2.78 -1.34,6.6 1.87,8.35l10.59 5.65c2.61,1.42 6.12,0.75 7.91,-1.56 2.17,-2.78 1.33,-6.6 -1.87,-8.35l-10.59 -5.64zm213.52 126.86c2.6,1.42 6.12,0.76 7.91,-1.55 2.16,-2.78 1.33,-6.61 -1.88,-8.35l-7.67 -4.1c-2.61,-1.42 -6.12,-0.75 -7.92,1.55 -2.16,2.78 -1.33,6.61 1.88,8.36l7.68 4.09zm-39.47 -21.03c2.61,1.43 6.12,0.76 7.92,-1.55 2.16,-2.78 1.33,-6.6 -1.88,-8.35l-10.59 -5.64c-2.61,-1.42 -6.12,-0.76 -7.92,1.55 -2.16,2.78 -1.33,6.6 1.88,8.35l10.59 5.64zm-42.37 -22.57c2.6,1.42 6.11,0.76 7.91,-1.55 2.16,-2.78 1.33,-6.6 -1.88,-8.35l-10.59 -5.65c-2.61,-1.42 -6.12,-0.76 -7.91,1.55 -2.17,2.78 -1.34,6.6 1.87,8.36l10.6 5.64zm-42.38 -22.57c2.6,1.42 6.11,0.75 7.91,-1.56 2.16,-2.78 1.33,-6.6 -1.88,-8.35l-10.59 -5.64c-2.6,-1.42 -6.12,-0.76 -7.91,1.55 -2.16,2.78 -1.33,6.6 1.87,8.35l10.6 5.65zm-42.38 -22.57c2.61,1.42 6.12,0.75 7.92,-1.56 2.16,-2.78 1.33,-6.6 -1.88,-8.35l-10.59 -5.64c-2.61,-1.42 -6.12,-0.76 -7.91,1.55 -2.17,2.78 -1.33,6.6 1.87,8.35l10.59 5.65z"/>
   <path class="fil0" d="M32.38 388.76c-6.42,3.5 -1.96,13.05 5.73,10.06l10.9 -5.8c6.42,-3.5 1.96,-13.06 -5.72,-10.06l-10.91 5.8zm225.6 -107.06c6.42,-3.5 1.96,-13.05 -5.73,-10.06l-7.99 4.25c-6.42,3.5 -1.96,13.06 5.73,10.06l7.99 -4.25zm-39.47 21.03c6.42,-3.5 1.96,-13.06 -5.72,-10.06l-10.91 5.8c-6.42,3.5 -1.96,13.05 5.73,10.06l10.9 -5.8zm-42.37 22.57c6.41,-3.5 1.95,-13.05 -5.73,-10.06l-10.91 5.8c-6.41,3.5 -1.96,13.06 5.73,10.06l10.91 -5.8zm-42.38 22.58c6.42,-3.5 1.96,-13.06 -5.73,-10.06l-10.9 5.79c-6.42,3.51 -1.96,13.06 5.72,10.06l10.91 -5.79zm-42.38 22.57c6.42,-3.5 1.96,-13.06 -5.72,-10.06l-10.91 5.79c-6.41,3.51 -1.95,13.06 5.73,10.07l10.9 -5.8z"/>
   <path class="fil0" d="M248.85 509.65c0,6.9 10.98,7.96 12.18,0.69l0.04 -0.69 0 -11.42c0,-6.9 -10.98,-7.95 -12.18,-0.69l-0.04 0.69 0 11.42zm12.22 -464.54c0,-6.9 -10.98,-7.95 -12.18,-0.69l-0.04 0.69 0 7.75c0,6.9 10.98,7.96 12.18,0.69l0.04 -0.69 0 -7.75zm0 42.01c0,-6.9 -10.98,-7.96 -12.18,-0.69l-0.04 0.69 0 11.42c0,6.9 10.98,7.96 12.18,0.69l0.04 -0.69 0 -11.42zm0 45.68c0,-6.9 -10.98,-7.96 -12.18,-0.69l-0.04 0.69 0 11.42c0,6.9 10.98,7.96 12.18,0.69l0.04 -0.69 0 -11.42zm0 45.68c0,-6.9 -10.98,-7.96 -12.18,-0.69l-0.04 0.69 0 11.42c0,6.9 10.98,7.96 12.18,0.69l0.04 -0.69 0 -11.42zm0 45.68c0,-6.9 -10.98,-7.96 -12.18,-0.69l-0.04 0.69 0 11.42c0,6.9 10.98,7.96 12.18,0.69l0.04 -0.69 0 -11.42zm0 45.68c0,-6.9 -10.98,-7.96 -12.18,-0.69l-0.04 0.69 0 11.42c0,6.9 10.98,7.95 12.18,0.69l0.04 -0.69 0 -11.42zm0 45.68c0,-6.9 -10.98,-7.96 -12.18,-0.7l-0.04 0.7 0 11.42c0,6.9 10.98,7.95 12.18,0.69l0.04 -0.69 0 -11.42zm0 45.68c0,-6.9 -10.98,-7.96 -12.18,-0.7l-0.04 0.7 0 11.41c0,6.9 10.98,7.96 12.18,0.7l0.04 -0.7 0 -11.41zm0 45.67c0,-6.89 -10.98,-7.95 -12.18,-0.69l-0.04 0.69 0 11.42c0,6.9 10.98,7.96 12.18,0.7l0.04 -0.7 0 -11.42zm0 45.68c0,-6.9 -10.98,-7.95 -12.18,-0.69l-0.04 0.69 0 11.42c0,6.9 10.98,7.96 12.18,0.7l0.04 -0.7 0 -11.42z"/>
   <path class="fil0" d="M41.5 154.27c0,-2.95 -2.46,-5.47 -5.59,-5.68 -3.59,-0.26 -6.61,2.35 -6.61,5.68l0 11.4c0,2.94 2.47,5.47 5.59,5.68 3.59,0.26 6.61,-2.35 6.61,-5.68l0 -11.4zm-12.2 236.47c0,2.95 2.47,5.47 5.59,5.68 3.59,0.26 6.61,-2.35 6.61,-5.68l0 -8.51c0,-2.95 -2.46,-5.47 -5.59,-5.68 -3.59,-0.26 -6.61,2.35 -6.61,5.68l0 8.51zm0 -42.7c0,2.94 2.47,5.47 5.59,5.68 3.59,0.26 6.61,-2.35 6.61,-5.68l0 -11.4c0,-2.95 -2.46,-5.47 -5.59,-5.68 -3.59,-0.26 -6.61,2.35 -6.61,5.68l0 11.4zm0 -45.6c0,2.95 2.47,5.47 5.59,5.69 3.59,0.25 6.61,-2.36 6.61,-5.69l0 -11.39c0,-2.95 -2.46,-5.48 -5.59,-5.69 -3.59,-0.25 -6.61,2.35 -6.61,5.69l0 11.39zm0 -45.59c0,2.95 2.47,5.47 5.59,5.68 3.59,0.26 6.61,-2.35 6.61,-5.68l0 -11.4c0,-2.94 -2.46,-5.47 -5.59,-5.68 -3.59,-0.26 -6.61,2.35 -6.61,5.68l0 11.4zm0 -45.59c0,2.94 2.47,5.47 5.59,5.68 3.59,0.26 6.61,-2.35 6.61,-5.68l0 -11.4c0,-2.95 -2.46,-5.47 -5.59,-5.68 -3.59,-0.26 -6.61,2.35 -6.61,5.68l0 11.4z"/>
   <path class="fil1" d="M35.4 368.45c13.17,0 23.85,9.98 23.85,22.29 0,12.31 -10.68,22.3 -23.85,22.3 -13.17,0 -23.85,-9.99 -23.85,-22.3 0,-12.31 10.68,-22.29 23.85,-22.29z"/>
   <path class="fil0" d="M270.32 535.26c-14.53,7.93 -33.19,3.34 -41.68,-10.24 -8.48,-13.58 -3.58,-31.03 10.96,-38.96l204.43 -111.66 0 -169.23 -174.07 92.72c-9.81,5.2 -21.41,4.74 -30.48,-0.26l-219.08 -116.69c-14.6,-7.75 -19.72,-25.09 -11.43,-38.74 2.87,-4.73 6.97,-8.4 11.72,-10.84l219.26 -116.8c14.6,-7.75 33.16,-2.96 41.44,10.68 8.29,13.65 3.17,31 -11.43,38.74l-173.16 92.25 158.16 84.24 202.48 -107.85c4.87,-3.09 10.75,-4.89 17.08,-4.89 16.83,0 30.48,12.76 30.48,28.5l0 234.51c-0.02,9.79 -5.43,19.31 -15.12,24.6l-219.56 119.92z"/>
  </g>
 </g>
</svg>
