<svg width="41" height="44" viewBox="0 0 41 44" fill="none" xmlns="http://www.w3.org/2000/svg">
<path d="M20.744 1.9544C20.5303 1.83596 20.2424 1.89134 20.0952 2.08356C19.9178 2.31522 19.9861 2.63345 20.2489 2.77923L21.1175 3.24905C21.3312 3.36748 21.6192 3.3121 21.7664 3.11989C21.9437 2.88822 21.8754 2.57 21.6126 2.42421L20.744 1.9544ZM38.2527 12.52C38.4664 12.6384 38.7543 12.583 38.9015 12.3908C39.0789 12.1591 39.0107 11.8409 38.7477 11.6951L38.118 11.3543C37.9043 11.2358 37.6163 11.2912 37.4692 11.4834C37.2918 11.7151 37.3601 12.0333 37.6229 12.1791L38.2527 12.52ZM35.0167 10.769C35.2304 10.8873 35.5184 10.8319 35.6655 10.6398C35.8429 10.4081 35.7746 10.0898 35.5118 9.94412L34.643 9.47401C34.4293 9.35557 34.1413 9.41096 33.9941 9.60317C33.8168 9.83483 33.885 10.1531 34.1479 10.2988L35.0167 10.769ZM31.5417 8.88871C31.7554 9.00715 32.0434 8.95167 32.1905 8.75955C32.3679 8.52789 32.2996 8.20966 32.0367 8.06388L31.1679 7.59376C30.9542 7.47533 30.6663 7.53081 30.5191 7.72292C30.3417 7.95459 30.41 8.27281 30.6728 8.4186L31.5417 8.88871ZM28.0666 7.00866C28.2804 7.1271 28.5683 7.07171 28.7155 6.8795C28.8928 6.64784 28.8246 6.32961 28.5617 6.18382L27.6931 5.71401C27.4794 5.59557 27.1915 5.65095 27.0443 5.84317C26.8669 6.07483 26.9352 6.39306 27.1981 6.53884L28.0666 7.00866ZM24.5921 5.1289C24.8058 5.24724 25.0938 5.19186 25.2409 4.99974C25.4183 4.76798 25.35 4.44975 25.0871 4.30407L24.2186 3.83415C24.0049 3.71581 23.717 3.7712 23.5697 3.96341C23.3924 4.19507 23.4606 4.5133 23.7235 4.65899L24.5921 5.1289Z" fill="#004578"/>
<path d="M20.2489 42.0397C20.4628 42.1581 20.7507 42.1027 20.8978 41.9105C21.0753 41.6788 21.007 41.3606 20.744 41.2148L19.8756 40.745C19.6617 40.6266 19.3738 40.682 19.2267 40.8742C19.0493 41.1058 19.1175 41.4241 19.3805 41.5698L20.2489 42.0397ZM2.74034 31.4743C2.52659 31.3559 2.23865 31.4113 2.09154 31.6035C1.91411 31.8351 1.98239 32.1534 2.24533 32.2991L2.87506 32.6398C3.0888 32.7582 3.37674 32.7028 3.52386 32.5106C3.70129 32.279 3.63301 31.9608 3.37006 31.815L2.74034 31.4743ZM5.9764 33.2251C5.76265 33.1067 5.47471 33.162 5.3275 33.3543C5.15017 33.5859 5.21835 33.9042 5.4813 34.0499L6.35005 34.5201C6.56379 34.6384 6.85173 34.583 6.99885 34.3909C7.17628 34.1592 7.108 33.8409 6.84514 33.6952L5.9764 33.2251ZM9.45139 35.1054C9.23764 34.9869 8.9497 35.0423 8.80259 35.2345C8.62516 35.4662 8.69344 35.7844 8.95629 35.9302L9.82504 36.4003C10.0389 36.5186 10.3267 36.4633 10.4739 36.2711C10.6513 36.0394 10.5831 35.7212 10.3201 35.5755L9.45139 35.1054ZM12.9265 36.9854C12.7126 36.867 12.4247 36.9224 12.2776 37.1146C12.1001 37.3462 12.1684 37.6645 12.4314 37.8102L13.2998 38.2801C13.5136 38.3985 13.8015 38.3431 13.9487 38.1509C14.1261 37.9192 14.0579 37.601 13.7949 37.4552L12.9265 36.9854ZM16.401 38.8652C16.1872 38.7467 15.8993 38.8022 15.7522 38.9943C15.5748 39.226 15.643 39.5442 15.9059 39.69L16.7744 40.1599C16.9882 40.2782 17.2761 40.2229 17.4232 40.0307C17.6007 39.799 17.5324 39.4808 17.2695 39.335L16.401 38.8652Z" fill="#004578"/>
<path d="M20.744 21.7335C20.5303 21.6151 20.2424 21.6705 20.0952 21.8627C19.9178 22.0943 19.9861 22.4125 20.2489 22.5583L21.1175 23.0282C21.3312 23.1466 21.6192 23.0912 21.7664 22.899C21.9437 22.6673 21.8754 22.3491 21.6126 22.2033L20.744 21.7335ZM38.2527 32.2991C38.4664 32.4175 38.7543 32.3621 38.9015 32.17C39.0789 31.9383 39.0107 31.62 38.7477 31.4743L38.118 31.1334C37.9043 31.015 37.6163 31.0704 37.4692 31.2625C37.2918 31.4942 37.3601 31.8125 37.6229 31.9582L38.2527 32.2991ZM35.0167 30.5481C35.2304 30.6665 35.5184 30.6111 35.6655 30.4189C35.8429 30.1872 35.7746 29.869 35.5118 29.7232L34.643 29.2531C34.4293 29.1348 34.1413 29.1902 33.9941 29.3823C33.8168 29.614 33.885 29.9323 34.1479 30.0779L35.0167 30.5481ZM31.5417 28.6678C31.7554 28.7862 32.0434 28.7309 32.1905 28.5386C32.3679 28.307 32.2996 27.9888 32.0367 27.843L31.1679 27.3729C30.9542 27.2545 30.6663 27.3099 30.5191 27.5021C30.3417 27.7338 30.41 28.052 30.6728 28.1978L31.5417 28.6678ZM28.0666 26.7878C28.2804 26.9062 28.5683 26.8508 28.7155 26.6586C28.8928 26.4269 28.8246 26.1087 28.5617 25.9629L27.6931 25.4931C27.4794 25.3747 27.1915 25.4301 27.0443 25.6223C26.8669 25.8539 26.9352 26.1722 27.1981 26.3179L28.0666 26.7878ZM24.5921 24.908C24.8058 25.0264 25.0938 24.9711 25.2409 24.7788C25.4183 24.5472 25.35 24.229 25.0871 24.0832L24.2186 23.6134C24.0049 23.4949 23.717 23.5503 23.5697 23.7425C23.3924 23.9742 23.4606 24.2924 23.7235 24.4382L24.5921 24.908Z" fill="#004578"/>
<path d="M2.24533 31.4743C1.71905 31.7658 2.08466 32.5615 2.71486 32.3121L3.60889 31.8293C4.13518 31.5378 3.76947 30.742 3.13936 30.9914L2.24533 31.4743ZM20.744 22.5583C21.2703 22.2669 20.9047 21.4711 20.2745 21.7205L19.6192 22.0744C19.093 22.3659 19.4586 23.1616 20.0889 22.9123L20.744 22.5583ZM17.5081 24.3094C18.0344 24.0179 17.6687 23.2222 17.0385 23.4716L16.1442 23.9546C15.6179 24.2462 15.9837 25.0419 16.6138 24.7925L17.5081 24.3094ZM14.0331 26.1897C14.5593 25.8981 14.1937 25.1025 13.5635 25.3519L12.6692 25.8349C12.143 26.1264 12.5086 26.9221 13.1388 26.6728L14.0331 26.1897ZM10.558 28.0697C11.0843 27.7782 10.7187 26.9824 10.0885 27.2318L9.19444 27.7147C8.66816 28.0063 9.03377 28.8019 9.66397 28.5525L10.558 28.0697ZM7.08349 29.9495C7.60968 29.6579 7.24407 28.8623 6.61387 29.1117L5.71984 29.5945C5.19356 29.886 5.55926 30.6817 6.18947 30.4324L7.08349 29.9495Z" fill="#004578"/>
<path d="M19.9956 41.5434C19.9956 42.118 20.8959 42.2061 20.994 41.601L20.9975 41.5434V40.5922C20.9975 40.0177 20.0971 39.9295 19.9991 40.5346L19.9956 40.5922V41.5434ZM20.9975 2.8535C20.9975 2.27892 20.0971 2.19078 19.9991 2.79585L19.9956 2.8535V3.49891C19.9956 4.07349 20.8959 4.16163 20.994 3.55655L20.9975 3.49891V2.8535ZM20.9975 6.35223C20.9975 5.77765 20.0971 5.68951 19.9991 6.29459L19.9956 6.35223V7.30337C19.9956 7.87795 20.8959 7.96609 20.994 7.36102L20.9975 7.30337V6.35223ZM20.9975 10.1567C20.9975 9.58212 20.0971 9.49398 19.9991 10.0991L19.9956 10.1567V11.1078C19.9956 11.6823 20.8959 11.7705 20.994 11.1654L20.9975 11.1078V10.1567ZM20.9975 13.9612C20.9975 13.3866 20.0971 13.2984 19.9991 13.9035L19.9956 13.9612V14.9122C19.9956 15.4868 20.8959 15.5749 20.994 14.9699L20.9975 14.9122V13.9612ZM20.9975 17.7655C20.9975 17.1911 20.0971 17.1029 19.9991 17.7079L19.9956 17.7655V18.7167C19.9956 19.2913 20.8959 19.3794 20.994 18.7743L20.9975 18.7167V17.7655ZM20.9975 21.57C20.9975 20.9954 20.0971 20.9073 19.9991 21.5124L19.9956 21.57V22.5211C19.9956 23.0957 20.8959 23.1839 20.994 22.5788L20.9975 22.5211V21.57ZM20.9975 25.3745C20.9975 24.7999 20.0971 24.7118 19.9991 25.3168L19.9956 25.3745V26.3256C19.9956 26.9002 20.8959 26.9882 20.994 26.3833L20.9975 26.3256V25.3745ZM20.9975 29.1789C20.9975 28.6044 20.0971 28.5162 19.9991 29.1213L19.9956 29.1789V30.13C19.9956 30.7046 20.8959 30.7927 20.994 30.1876L20.9975 30.13V29.1789ZM20.9975 32.9833C20.9975 32.4088 20.0971 32.3207 19.9991 32.9258L19.9956 32.9833V33.9345C19.9956 34.509 20.8959 34.5972 20.994 33.9921L20.9975 33.9345V32.9833ZM20.9975 36.7878C20.9975 36.2132 20.0971 36.1251 19.9991 36.7301L19.9956 36.7878V37.7389C19.9956 38.3135 20.8959 38.4016 20.994 37.7966L20.9975 37.7389V36.7878Z" fill="#004578"/>
<path d="M2.99292 11.9446C2.99292 11.6991 2.79089 11.4888 2.53443 11.4713C2.24059 11.4498 1.99275 11.6671 1.99275 11.9446V12.8939C1.99275 13.1392 2.19478 13.3496 2.45124 13.367C2.74508 13.3886 2.99292 13.1713 2.99292 12.8939V11.9446ZM1.99275 31.6398C1.99275 31.8851 2.19478 32.0955 2.45124 32.113C2.74508 32.1345 2.99292 31.9172 2.99292 31.6398V30.9309C2.99292 30.6855 2.79089 30.4752 2.53443 30.4577C2.24059 30.4361 1.99275 30.6534 1.99275 30.9309V31.6398ZM1.99275 28.0829C1.99275 28.3282 2.19478 28.5387 2.45124 28.5562C2.74508 28.5777 2.99292 28.3603 2.99292 28.0829V27.1336C2.99292 26.8883 2.79089 26.6779 2.53443 26.6604C2.24059 26.6389 1.99275 26.8562 1.99275 27.1336V28.0829ZM1.99275 24.2856C1.99275 24.5311 2.19478 24.7414 2.45124 24.7589C2.74508 24.7804 2.99292 24.5631 2.99292 24.2856V23.3363C2.99292 23.091 2.79089 22.8806 2.53443 22.8632C2.24059 22.8416 1.99275 23.0589 1.99275 23.3363V24.2856ZM1.99275 20.4884C1.99275 20.7338 2.19478 20.9441 2.45124 20.9616C2.74508 20.9831 2.99292 20.7658 2.99292 20.4884V19.5391C2.99292 19.2937 2.79089 19.0834 2.53443 19.0659C2.24059 19.0444 1.99275 19.2617 1.99275 19.5391V20.4884ZM1.99275 16.6911C1.99275 16.9365 2.19478 17.1468 2.45124 17.1643C2.74508 17.1858 2.99292 16.9685 2.99292 16.6911V15.7418C2.99292 15.4964 2.79089 15.2861 2.53443 15.2686C2.24059 15.2471 1.99275 15.4644 1.99275 15.7418V16.6911Z" fill="#004578"/>
<path fill-rule="evenodd" clip-rule="evenodd" d="M2.49279 29.7828C3.57277 29.7828 4.44858 30.6145 4.44858 31.6398C4.44858 32.6651 3.57277 33.4967 2.49279 33.4967C1.41291 33.4967 0.537088 32.6651 0.537088 31.6398C0.537088 30.6145 1.41291 29.7828 2.49279 29.7828Z" fill="#004578"/>
<path d="M21.7562 43.6762C20.5646 44.3366 19.0341 43.9546 18.3386 42.8233C17.643 41.6918 18.0452 40.2388 19.2369 39.5784L36.0005 30.2787V16.1838L21.7269 23.9062C20.9221 24.3397 19.9707 24.3016 19.2272 23.8852L1.2624 14.1657C0.0653296 13.5207 -0.354129 12.076 0.325179 10.9393C0.560719 10.5454 0.897468 10.2401 1.28681 10.0363L19.2661 0.30876C20.4632 -0.336253 21.9849 0.0620478 22.6642 1.19862C23.3435 2.33519 22.924 3.77995 21.7269 4.42487L7.52726 12.1076L20.4965 19.1244L37.0997 10.1415C37.4992 9.88441 37.9813 9.7342 38.5002 9.7342C39.8806 9.7342 41 10.797 41 12.1076V31.6398C40.9981 32.455 40.5547 33.2482 39.7599 33.6886L21.7562 43.6762Z" fill="#004578"/>
</svg>
