<svg width="66" height="80" viewBox="0 0 66 80" fill="none" xmlns="http://www.w3.org/2000/svg">
<path fill-rule="evenodd" clip-rule="evenodd" d="M0.231954 63.3791L65.7152 63.4166L65.7512 0.0360759L0.230515 -3.05176e-05L0.231954 63.3791ZM23.8736 7.10875C20.0655 7.87115 20.8369 11.1929 20.8369 15.0396C20.8369 18.6947 20.6311 34.6384 20.9347 36.884C22.3149 47.0785 37.3473 47.5965 40.0458 38.4518C40.7725 35.9924 40.4631 30.8389 40.4617 27.9546V11.5679C40.4646 9.59454 40.2185 8.46691 38.9664 7.66007C37.6927 6.83934 36.0175 6.76991 34.6977 7.60313C33.3218 8.47107 33.1333 9.57232 33.1362 11.7068C33.1448 19.0211 33.1376 26.334 33.1391 33.6483C33.1391 35.4536 33.1923 37.0451 31.6711 37.6089C29.852 38.281 28.3566 37.0229 28.217 35.5828L28.2012 13.6509C28.2055 12.0803 28.4631 9.88339 27.6932 8.67799C27.0412 7.65729 25.5991 6.76158 23.8736 7.10875ZM62.0452 54.3608C61.8495 53.1416 60.2808 49.7614 59.7425 48.4436L52.6214 30.8653C50.0179 24.244 49.7689 25.8577 53.8951 19.4696C54.9126 17.8934 56.0409 16.1464 57.0973 14.4981C58.1162 12.9052 59.8605 10.8763 58.394 8.63077C57.2326 6.85323 54.347 6.44912 52.6214 8.0989C51.9694 8.72104 46.7783 17.1602 46.1753 18.1295C42.678 23.7593 41.8447 24.1273 44.395 29.921C45.2355 31.8319 46.1263 33.765 46.9308 35.6661C47.6317 37.3228 51.827 46.4563 51.9407 47.284C44.182 47.3826 36.3499 47.2896 28.584 47.2896C15.9738 47.2896 15.899 48.445 15.8947 42.536C15.8932 40.6377 15.8947 38.7407 15.8961 36.8423C15.9019 29.3433 15.8947 21.8443 15.8976 14.3453C15.8976 11.8873 16.7251 6.62548 11.7412 7.10042C7.74309 7.48231 8.50299 11.8317 8.51594 15.4563C8.54185 22.9539 8.52889 30.4557 8.52889 37.9533C8.52889 40.5071 8.23242 46.9632 8.75053 49.0296C9.42839 51.7292 11.8793 53.9984 15.0571 54.3261C16.9208 54.5178 61.6811 54.3678 62.0452 54.3608Z" fill="#E03A3E"/>
<path fill-rule="evenodd" clip-rule="evenodd" d="M45.1177 79.5075L48.0738 79.538L51.9438 73.6402L52.0258 79.5144L54.8639 79.5422L54.8682 69.4408L52.0417 69.4519C51.2199 70.274 49.1331 73.8957 48.3818 74.8303L47.963 75.2275L47.9601 69.5255L45.1292 69.4422L45.1177 79.5075Z" fill="#232021"/>
<path fill-rule="evenodd" clip-rule="evenodd" d="M55.9804 77.1536L55.9588 79.5422C58.0873 79.9963 60.036 79.3672 60.662 77.9244C61.3255 76.3996 60.7973 73.6888 61.0175 71.9002L63.0439 71.8877L63.0727 79.5325L65.9914 79.5283L66 69.4797L58.0557 69.4436C58.0226 71.0767 58.0456 72.7181 58.0485 74.3373C58.0513 76.3274 58.2874 77.2689 55.9804 77.1536Z" fill="#232021"/>
<path fill-rule="evenodd" clip-rule="evenodd" d="M4.79827 77.548C5.14367 75.6983 4.71623 73.6138 5.00695 71.8738L7.10817 71.8321L7.16142 79.4894L10.0686 79.4533L10.0456 69.463L2.08827 69.445C2.0638 70.5073 2.22499 75.7691 1.89398 76.4954C1.55289 77.2397 0.886542 77.1523 0.0172701 77.1759L0 79.5256C2.27248 80.1546 4.414 79.1714 4.79827 77.548Z" fill="#232021"/>
<path fill-rule="evenodd" clip-rule="evenodd" d="M22.4115 79.5339L25.3144 79.5394L25.3719 75.4219C25.5187 75.5275 25.5 75.5053 25.6281 75.6497L28.2791 79.4936L31.9346 79.5394C31.428 78.4063 28.6849 75.558 28.0243 74.3374C28.5482 73.3347 31.3287 70.4587 31.8497 69.4977L28.4115 69.445L25.3748 73.4347L25.359 69.5144L22.4129 69.4477L22.4115 79.5339Z" fill="#232021"/>
<path fill-rule="evenodd" clip-rule="evenodd" d="M13.6852 79.5353L16.8053 79.5298L21.4381 69.4727L18.2143 69.4519L16.6528 73.5069C15.8353 72.8404 15.3115 70.3393 14.4796 69.4686L11.158 69.4478C11.5883 70.7406 13.0634 73.0806 13.7269 74.3652C13.9759 74.8456 14.943 76.4024 14.9128 76.8218C14.8811 77.2398 13.8852 78.7937 13.6852 79.5353Z" fill="#232021"/>
<path fill-rule="evenodd" clip-rule="evenodd" d="M37.092 71.6599C33.8941 72.7279 35.0498 78.4396 38.737 77.3411C41.8673 76.4093 40.7792 70.4282 37.092 71.6599ZM36.5235 69.1589C29.5478 70.5087 31.1223 81.5434 39.4336 79.8172C46.1215 78.4271 44.7485 67.5674 36.5235 69.1589Z" fill="#232021"/>
<path fill-rule="evenodd" clip-rule="evenodd" d="M46.9276 67.2314C47.463 69.3783 51.8914 69.5199 53.0586 67.3938C52.7463 67.0397 51.9317 66.8314 51.4395 66.7161C50.6566 68.1132 49.3656 67.5105 48.4431 66.7231L46.9276 67.2314Z" fill="#232021"/>
<path fill-rule="evenodd" clip-rule="evenodd" d="M4.79827 77.548C5.38402 77.0995 5.11176 72.9168 5.13479 71.9822L7.01581 71.9669L7.01438 79.5437C7.76132 79.8395 8.80473 79.6673 9.58477 79.6673C10.5721 79.6409 9.79082 79.6825 10.0686 79.4533L7.16142 79.4894L7.10817 71.8321L5.00695 71.8738C4.71623 73.6138 5.14367 75.6983 4.79827 77.548Z" fill="#B1AEAF"/>
</svg>
