<svg width="80" height="80" viewBox="0 0 80 80" fill="none" xmlns="http://www.w3.org/2000/svg">
<circle cx="40" cy="40" r="40" fill="#004578"/>
<path fill-rule="evenodd" clip-rule="evenodd" d="M32.5008 17C32.5008 15.8954 33.3962 15 34.5008 15H44.6864C45.791 15 46.6864 15.8954 46.6864 17V20.087C49.4671 21.0203 51.988 22.5198 54.1121 24.4485L56.9067 22.8561C57.8664 22.3093 59.0966 22.6389 59.6543 23.5923L64.7273 32.2641C65.2851 33.2175 64.9592 34.4337 63.9995 34.9805L60.7614 36.8256C60.9184 37.8608 60.9998 38.9209 60.9998 40C60.9998 41.4434 60.8541 42.8528 60.5768 44.2142L63.493 45.8759C64.4527 46.4227 64.7785 47.6389 64.2208 48.5923L59.1478 57.2641C58.59 58.2175 57.3599 58.5471 56.4002 58.0002L53.3132 56.2413C51.366 57.8393 49.1262 59.0941 46.6864 59.913V63C46.6864 64.1046 45.791 65 44.6864 65H34.5008C33.3962 65 32.5008 64.1046 32.5008 63V59.6215C30.3752 58.8087 28.4155 57.6604 26.6865 56.2414L23.5996 58.0002C22.6399 58.5471 21.4098 58.2175 20.852 57.2641L15.779 48.5923C15.2213 47.6389 15.5471 46.4227 16.5068 45.8759L19.4228 44.2144C19.1454 42.8529 18.9998 41.4434 18.9998 40C18.9998 38.9209 19.0812 37.8607 19.2382 36.8254L16.0003 34.9805C15.0406 34.4337 14.7147 33.2175 15.2725 32.2641L20.3455 23.5923C20.9032 22.6389 22.1334 22.3093 23.0931 22.8561L25.8876 24.4484C27.8028 22.7094 30.0407 21.3192 32.5008 20.3785V17ZM40 56C48.8366 56 56 48.8366 56 40C56 31.1634 48.8366 24 40 24C31.1634 24 24 31.1634 24 40C24 48.8366 31.1634 56 40 56Z" fill="white"/>
<path d="M43 40C43 41.6569 41.6569 43 40 43C38.3431 43 37 41.6569 37 40C37 38.3431 38.3431 37 40 37C41.6569 37 43 38.3431 43 40Z" fill="white"/>
<path d="M39 28C39 27.4477 39.4477 27 40 27C40.5523 27 41 27.4477 41 28V37C41 37.5523 40.5523 38 40 38C39.4477 38 39 37.5523 39 37V28Z" fill="white"/>
<path d="M40 40C40 39.4477 40.4477 39 41 39H49C49.5523 39 50 39.4477 50 40C50 40.5523 49.5523 41 49 41H41C40.4477 41 40 40.5523 40 40Z" fill="white"/>
</svg>
