<svg width="146" height="176" viewBox="0 0 146 176" fill="none" xmlns="http://www.w3.org/2000/svg">
<path d="M61.2549 85.5356H57.1379L61.1459 74.0656L72.6459 92.9946L84.1459 74.0646L88.1589 85.5356H84.0379V92.4736H111.538V85.5356H106.196L87.9839 39.5156L72.6459 66.3976L57.3099 39.5156L39.0969 85.5356H33.7639V92.4736H61.2559L61.2549 85.5356Z" fill="#DA2031"/>
<path d="M145.3 72.65C145.3 32.525 112.776 0 72.65 0C32.53 0 4.48915e-05 32.525 4.48915e-05 72.65C-0.0105604 82.176 1.858 91.6105 5.49873 100.413C9.13946 109.216 14.4809 117.214 21.217 123.95C21.7701 124.512 22.43 124.958 23.1577 125.261C23.8855 125.565 24.6666 125.72 25.455 125.717C28.713 125.717 31.355 123.067 31.355 119.817C31.355 118.163 30.65 116.65 29.55 115.542C23.919 109.909 19.4536 103.222 16.4094 95.8622C13.3652 88.5024 11.802 80.6146 11.8091 72.65C11.8091 39.108 39.1 11.808 72.65 11.808C106.2 11.808 133.496 39.108 133.496 72.65C133.496 89.43 126.667 104.642 115.646 115.654L64.267 167.034L72.638 175.409L124.055 123.995C137.184 110.845 145.301 92.699 145.301 72.649" fill="#DA2031"/>
</svg>
