<svg width="40" height="40" viewBox="0 0 40 40" fill="none" xmlns="http://www.w3.org/2000/svg">
<path d="M38.6316 10.8248L28.4411 0.235781C28.296 0.0851562 28.0959 0 27.8868 0H12.6985C10.9988 0 9.61586 1.38234 9.61586 3.08141V13.8462H3.46062C2.18891 13.8462 1.1543 14.8805 1.1543 16.1519V27.6944C1.1543 28.9657 2.18891 30 3.46062 30H9.61586V36.924C9.61586 38.6201 10.9988 40 12.6985 40H35.764C37.4637 40 38.8466 38.6209 38.8466 36.9257V11.3582C38.8466 11.1593 38.7695 10.9681 38.6316 10.8248ZM28.0774 2.07664L36.443 10.7692H28.0774V2.07664ZM3.46062 28.4616C3.03719 28.4616 2.69281 28.1174 2.69281 27.6944V16.1519C2.69281 15.7288 3.03727 15.3846 3.46062 15.3846H24.2327C24.6561 15.3846 25.0005 15.7288 25.0005 16.1519V27.6944C25.0005 28.1174 24.656 28.4616 24.2327 28.4616H3.46062ZM37.3081 36.9257C37.3081 37.7726 36.6154 38.4616 35.7639 38.4616H12.6985C11.847 38.4616 11.1543 37.7719 11.1543 36.9241V30H24.2327C25.5044 30 26.539 28.9657 26.539 27.6944V16.1519C26.539 14.8805 25.5044 13.8462 24.2327 13.8462H11.1543V3.08141C11.1543 2.23055 11.847 1.53844 12.6985 1.53844H26.5389V11.5384C26.5389 11.9633 26.8834 12.3077 27.3081 12.3077H37.3081V36.9257Z" fill="#34547A"/>
<path d="M10.3504 19.5233C10.095 19.1912 9.77796 18.9756 9.39937 18.8765C9.15296 18.8104 8.62414 18.7773 7.81281 18.7773H5.67188V25.3849H7.00601V22.8924H7.87593C8.47992 22.8924 8.94117 22.8608 9.25968 22.7977C9.49406 22.7466 9.72468 22.6423 9.95156 22.4844C10.1784 22.3267 10.3655 22.1096 10.5127 21.8332C10.66 21.5568 10.7336 21.2157 10.7336 20.8101C10.7335 20.2842 10.6058 19.8553 10.3504 19.5233ZM9.20781 21.3419C9.10718 21.4892 8.9682 21.5973 8.79085 21.6665C8.61351 21.7356 8.26203 21.7701 7.73617 21.7701H7.00601V19.8952H7.65054C8.13132 19.8952 8.45132 19.9102 8.61054 19.9402C8.82687 19.9793 9.0057 20.0769 9.14687 20.2332C9.28812 20.3894 9.35874 20.5878 9.35874 20.8281C9.35882 21.0234 9.30843 21.1947 9.20781 21.3419Z" fill="#34547A"/>
<path d="M17.1473 20.5825C17.003 20.1603 16.7927 19.8035 16.5163 19.512C16.2398 19.2205 15.9077 19.0177 15.5202 18.9035C15.2317 18.8194 14.8125 18.7773 14.2627 18.7773H11.8242V25.3849H14.3348C14.8276 25.3849 15.2212 25.3383 15.5156 25.2451C15.9093 25.119 16.2218 24.9432 16.4531 24.7178C16.7596 24.4203 16.9955 24.0312 17.1608 23.5505C17.296 23.1568 17.3636 22.688 17.3636 22.1442C17.3636 21.5252 17.2915 21.0047 17.1473 20.5825ZM15.8491 23.2958C15.759 23.5919 15.6426 23.8044 15.4998 23.9336C15.3571 24.0628 15.1776 24.1544 14.9613 24.2085C14.796 24.2506 14.527 24.2716 14.1545 24.2716H13.1584V19.8952H13.7578C14.3016 19.8952 14.6668 19.9162 14.853 19.9583C15.1024 20.0123 15.3083 20.116 15.4705 20.2693C15.6328 20.4226 15.759 20.6359 15.8491 20.9093C15.9393 21.1827 15.9844 21.5748 15.9844 22.0857C15.9844 22.5965 15.9393 22.9998 15.8491 23.2958Z" fill="#34547A"/>
<path d="M23.0337 19.8952V18.7773H18.5039V25.3849H19.838V22.5769H22.5965V21.4591H19.838V19.8952H23.0337Z" fill="#34547A"/>
</svg>
