<svg width="60" height="65" viewBox="0 0 60 65" fill="none" xmlns="http://www.w3.org/2000/svg">
<path d="M4.92288 3.56726C4.01832 3.56726 3.28164 4.36854 3.28164 5.35194V18.355C3.28164 19.3002 3.9642 20.0773 4.82124 20.1349L4.923 20.1343H41.0228L41.109 20.1349C41.9732 20.0858 42.6642 19.3059 42.6642 18.355V5.35194C42.6642 4.36854 41.9272 3.56831 41.0228 3.56831L4.92288 3.56726ZM38.606 61.6813H56.9473V38.885H50.8829L50.8997 31.8734H38.606V61.6813ZM53.2583 59.5982L42.5293 59.6235H40.7364V57.6116V42.8768H42.5293V49.609H44.4341L47.3291 46.3368V46.3294H47.3354L47.3429 46.323L47.3494 46.3294H50.0842L52.2346 43.9044H54.7512L50.827 48.3296V48.3349H50.8237L50.8198 48.337L50.8154 48.3349H48.078L45.1722 51.6165L42.5297 51.6142C42.5297 53.6505 42.5297 50.4506 42.5297 52.4859V57.6116H44.2522V54.5478H46.0442V57.6098L47.8963 57.6086V51.8597H49.6898V57.6055L51.4646 57.6003V50.0634H53.2576V57.5941L53.2586 57.5856V59.5985H53.2583V59.5982ZM60 65H35.5524V28.5532H53.1216L60 35.9367V65ZM15.1685 31.9868C15.1685 32.9725 14.4336 33.7721 13.5274 33.7721C12.6218 33.7721 11.887 32.9725 11.887 31.9882C11.887 31.0027 12.6218 30.2041 13.5274 30.2041C14.4336 30.2026 15.1685 31.0026 15.1685 31.9868ZM32.422 33.7717H21.2566L21.2141 33.773L21.1723 33.7717H21.0676V33.7653C20.2308 33.6838 19.5737 32.9194 19.5737 31.9883C19.5737 31.057 20.2309 30.2924 21.0676 30.2114V30.2029H32.4217L32.422 33.7717ZM9.84564 31.9868C9.84564 32.9725 9.11028 33.7721 8.20452 33.7721C7.29876 33.7721 6.56388 32.9725 6.56388 31.9882C6.56388 31.0027 7.29876 30.2041 8.20452 30.2041C9.1104 30.2026 9.84564 31.0026 9.84564 31.9868ZM15.1685 11.8526C15.1685 12.8378 14.4336 13.6372 13.5274 13.6372C12.6218 13.6367 11.887 12.8378 11.887 11.8531C11.887 10.8684 12.6218 10.0689 13.5274 10.0689C14.4336 10.0684 15.1685 10.8684 15.1685 11.8526ZM4.8066 23.7049C3.95652 23.771 3.28164 24.5466 3.28164 25.4861V38.4888C3.28164 39.472 4.01832 40.2738 4.92288 40.2738L32.4218 40.2725V43.841H4.92288C2.20848 43.841 0 41.4406 0 38.4892V25.4864C0 24.1182 0.4758 22.8669 1.2564 21.9194C0.47592 20.9724 0 19.724 0 18.3554V5.35194C0 2.40044 2.20848 0 4.92288 0H41.0227C43.7366 0 45.9452 2.40096 45.9452 5.35194L45.9457 18.355C45.9457 19.7233 45.4696 20.972 44.6888 21.919C45.4686 22.8665 45.9452 24.1178 45.9452 25.486V25.5632H42.664V25.486C42.664 24.5398 41.9803 23.7624 41.1228 23.7056L41.0226 23.7067H4.92288L4.8066 23.7049ZM37.7431 13.6372H21.2566L21.2141 13.6378L21.1723 13.6372H21.0676V13.6306C20.2308 13.5498 19.5737 12.785 19.5737 11.8536C19.5737 10.923 20.2309 10.1576 21.0676 10.0766V10.0689H37.7891V10.0697C38.6933 10.0708 39.4266 10.8697 39.4266 11.8531C39.4266 12.8383 38.6917 13.6378 37.7855 13.6378L37.7431 13.6372ZM9.84564 11.8526C9.84564 12.8378 9.11028 13.6372 8.20452 13.6372C7.29876 13.6367 6.56388 12.8378 6.56388 11.8531C6.56388 10.8684 7.29876 10.0689 8.20452 10.0689C9.1104 10.0684 9.84564 10.8684 9.84564 11.8526Z" fill="#004578"/>
</svg>
