<svg width="60" height="59" viewBox="0 0 60 59" fill="none" xmlns="http://www.w3.org/2000/svg">
<path d="M15.102 59.0001C14.484 59.0001 13.98 58.4499 13.98 57.7752V56.2957C13.98 55.6145 14.484 55.0643 15.102 55.0643H20.088V50.4726H7.29C5.346 50.4726 3.516 49.6473 2.136 48.1407C0.756 46.6407 0 44.6429 0 42.5141V8.18439C0 6.06212 0.762 4.0643 2.136 2.5643C3.51 1.05775 5.34 0.232422 7.29 0.232422H52.722C54.66 0.232422 56.484 1.05775 57.864 2.5643C59.238 4.0643 60 6.06212 60 8.18439V42.5141C60 44.6364 59.244 46.6342 57.864 48.1407C56.478 49.6473 54.648 50.4726 52.71 50.4726H39.9V55.0643H44.904C45.522 55.0643 46.032 55.6145 46.032 56.2957V57.7752C46.032 58.4499 45.522 59.0001 44.904 59.0001H15.102ZM35.13 55.2215V50.6298H24.792V55.2215H35.13ZM3.534 44.1451C3.588 45.5468 4.866 46.6407 5.994 46.6407H53.61C55.212 46.6407 56.622 45.108 56.694 43.5228L56.736 40.7324H3.588L3.534 44.1451ZM56.574 37.0184L56.598 9.65819C56.574 6.03592 54.372 4.45731 52.314 4.39836L6.552 4.156C4.83 4.14945 3.702 6.20622 3.768 7.64727L3.744 36.7499L56.574 37.0184Z" fill="#004578"/>
<path d="M45.234 32.7674C44.616 32.7674 44.106 32.2171 44.106 31.5425V13.8307C44.106 13.1495 44.616 12.5992 45.234 12.5992L46.032 12.5861C46.656 12.5861 47.16 13.1364 47.16 13.8176V31.5228C47.16 32.204 46.656 32.7608 46.032 32.7608L45.234 32.7674Z" fill="#004578"/>
<path d="M38.3522 32.6953C37.7342 32.6953 37.2302 32.1451 37.2302 31.4639L37.1882 24.4027L35.0162 31.8045C34.8782 32.3416 34.4342 32.7084 33.9302 32.7084L33.8102 32.715C33.3062 32.715 32.8562 32.3416 32.7242 31.8045L30.3182 24.5468L30.3602 31.4704C30.3602 32.1451 29.8562 32.7019 29.2322 32.7019L27.8702 32.6953C27.2462 32.6953 26.7422 32.1451 26.7422 31.4639V13.7521C26.7422 13.0774 27.2462 12.5272 27.8702 12.5272H29.9882C30.4922 12.5272 30.9362 12.894 31.0742 13.4246L33.6842 22.6211L36.5402 13.418C36.6782 12.8875 37.1222 12.5272 37.6262 12.5272H39.4922C40.1162 12.5272 40.6202 13.0774 40.6202 13.7521V31.4639C40.6202 32.1451 40.1162 32.6953 39.4922 32.6953H38.3522Z" fill="#004578"/>
<path d="M21.1438 32.6953C20.5198 32.6953 20.0158 32.1451 20.0158 31.4639V24.8089L17.2498 24.8154V31.2805C17.2498 31.9617 16.7458 32.7019 16.1278 32.7019L15.1858 32.6953C14.5618 32.6953 14.0578 32.1451 14.0578 31.4639V13.7521C14.0578 13.0774 14.5618 12.5272 15.1858 12.5272L16.1278 12.5337C16.7458 12.5337 17.2498 13.084 17.2498 13.7652V19.9158L20.0158 19.9027V13.7521C20.0158 13.0774 20.5198 12.5272 21.1438 12.5272L22.1098 12.5337C22.7278 12.5337 23.2378 13.084 23.2378 13.7652V31.4704C23.2378 32.1516 22.7278 32.7019 22.1098 32.7019L21.1438 32.6953Z" fill="#004578"/>
</svg>
