<svg width="60" height="60" viewBox="0 0 60 60" fill="none" xmlns="http://www.w3.org/2000/svg">
<path d="M4.94878 3.30766C4.0393 3.30766 3.29891 4.05057 3.29891 4.96263V17.0199C3.29891 17.8962 3.98518 18.6169 4.84654 18.6704L4.94878 18.6699H41.24L41.3264 18.6704C42.1946 18.6248 42.8894 17.9018 42.8894 17.0199V4.96251C42.8894 4.05057 42.1486 3.30862 41.24 3.30862L4.94878 3.30766ZM15.2487 29.6601C15.2487 30.5737 14.5099 31.3153 13.5987 31.3153C12.6884 31.3153 11.9496 30.5737 11.9496 29.6614C11.9496 28.7478 12.6884 28.007 13.5987 28.007C14.5099 28.0057 15.2487 28.7477 15.2487 29.6601ZM25.0441 31.3153H21.3689L21.3262 31.3162L21.2842 31.3153H21.179V31.3093C20.3376 31.2342 19.6769 30.5249 19.6769 29.6618C19.6769 28.798 20.3376 28.089 21.179 28.0139V28.0061H28.0306C27.5762 28.2776 27.1663 28.5681 26.8015 28.876C25.9576 29.5883 25.3512 30.4003 25.0441 31.3153ZM9.89768 29.6601C9.89768 30.5737 9.15836 31.3153 8.24781 31.3153C7.33737 31.3153 6.59853 30.5737 6.59853 29.6614C6.59853 28.7478 7.33737 28.007 8.24781 28.007C9.15836 28.0057 9.89768 28.7477 9.89768 29.6601ZM15.2487 10.9903C15.2487 11.904 14.5099 12.6451 13.5987 12.6451C12.6884 12.6447 11.9496 11.9039 11.9496 10.9908C11.9496 10.0779 12.6884 9.33639 13.5987 9.33639C14.5099 9.33591 15.2487 10.0779 15.2487 10.9903ZM4.83202 21.9808C3.9775 22.0418 3.29915 22.7608 3.29915 23.6323V35.6898C3.29915 36.6011 4.03954 37.3435 4.94902 37.3435H24.82L24.8193 40.6518H4.94878C2.21999 40.6518 0 38.4255 0 35.6898V23.6323C0 22.3635 0.478078 21.2033 1.26287 20.3248C0.478078 19.4467 0 18.2892 0 17.0199V4.96251C0 2.22561 2.21999 0 4.94878 0H41.24C43.9679 0 46.1876 2.22609 46.1876 4.96251L46.1882 17.0197C46.1882 18.2886 45.7093 19.4466 44.9251 20.3246C45.7093 21.2033 46.1876 22.3633 46.1876 23.6322V24.911L46.151 24.9092H46.1494L46.1147 24.9075L46.0781 24.906L46.0418 24.9044H46.0345L46.0052 24.9027C45.7039 24.8905 45.4027 24.8815 45.1009 24.8742L45.0643 24.8732H45.0296L45.0105 24.8725L44.6653 24.8659L44.6287 24.8654H44.5935L44.4842 24.8637H44.449L44.4392 24.8632H44.4367L44.2311 24.8616H44.2111H44.1945H44.1598H44.1231H44.0983H44.0864H44.0497H44.0145H43.9833H43.9784H43.9417H43.9049H43.8698H43.8531H43.8385H43.8238H43.8087H43.7919H43.7773H43.7621H43.7553H43.747H43.7303H43.7158H43.7007H43.6856H43.6689H43.6543H43.6407H43.6391H43.624H43.6072H43.5926H43.5775H43.5623H43.5457H43.531H43.5262H43.5159H43.5008L43.3792 24.8632H43.3624H43.3473H43.3322H43.3174H43.3009H43.298H43.2857H43.2705L43.256 24.8637H43.2393H43.2242L43.1328 24.8654H43.1161L42.8894 24.8698H42.8878V23.6323C42.8878 22.7548 42.2008 22.0343 41.3386 21.9813L41.2384 21.9825H4.94878L4.83202 21.9808ZM37.9426 12.6451H21.3688L21.3261 12.6459L21.2841 12.6451H21.1788V12.639C20.3375 12.5641 19.6767 11.8549 19.6767 10.9915C19.6767 10.1283 20.3375 9.41875 21.1788 9.34371V9.33639H37.9885V9.33711C38.8975 9.33807 39.635 10.0791 39.635 10.9908C39.635 11.9044 38.8963 12.6459 37.9851 12.6459L37.9426 12.6451ZM9.89768 10.9903C9.89768 11.904 9.15836 12.6451 8.24781 12.6451C7.33737 12.6447 6.59853 11.9039 6.59853 10.9908C6.59853 10.0779 7.33737 9.33639 8.24781 9.33639C9.15836 9.33591 9.89768 10.0779 9.89768 10.9903ZM44.0471 60C39.9158 60 35.7435 59.4215 32.7397 58.2917C30.2304 57.3483 28.4958 55.9991 28.1567 54.243C28.1062 53.7415 28.0951 53.4656 28.0951 52.9611C28.0951 52.9611 28.0956 36.0118 28.0956 34.4734C28.0939 34.2421 28.1334 33.9964 28.1566 33.7651C28.4957 32.0081 30.2298 30.6588 32.7401 29.7153C35.7434 28.5856 39.9159 28.007 44.0473 28.007C48.1782 28.007 52.3515 28.5856 55.3554 29.7153C57.8641 30.6588 59.5991 32.0081 59.9383 33.7651L60 53.6012L59.9383 54.243C59.5996 55.9991 57.8657 57.3483 55.3554 58.2917C52.3513 59.4215 48.1781 60 44.0471 60ZM31.2888 44.3102C31.3259 44.887 32.7243 45.6957 35.1609 46.3932C37.388 47.0312 40.4168 47.4847 44.0471 47.4847C47.6776 47.4847 50.7069 47.0312 52.9336 46.3932C55.4033 45.6859 56.8065 44.8644 56.8065 44.2868V43.4205V42.0283V38.4605C56.1923 38.7757 55.5067 39.0586 54.7615 39.3092C51.8232 40.2974 47.9217 40.803 44.0536 40.8039L44.0471 40.8067C39.9158 40.8067 35.7431 40.2281 32.7392 39.0974C32.2207 38.9024 31.7348 38.6905 31.2875 38.4605V42.0517H31.2864V44.3102H31.2888ZM56.8065 48.3405C56.1923 48.6576 55.5067 48.9395 54.7615 49.1903C51.8232 50.1774 47.9217 50.6839 44.0536 50.6839L44.0471 50.6866C39.9158 50.6866 35.7435 50.1083 32.7397 48.9785C32.2207 48.7833 31.7353 48.5707 31.2875 48.3405V53.601C31.2875 54.1795 32.6901 55 35.16 55.7073C37.3866 56.3452 40.416 56.7988 44.0473 56.7988C47.6788 56.7988 50.7081 56.3452 52.9347 55.7073C55.4039 55 56.8068 54.1795 56.8068 53.601L56.8065 48.3405ZM44.0471 31.2079C40.4168 31.2079 37.3875 31.6625 35.1603 32.2995C32.6906 33.0067 31.2875 33.8282 31.2875 34.4057C31.2875 34.9832 32.6901 35.8047 35.16 36.513C37.3866 37.1509 40.4164 37.6046 44.0473 37.6046C47.6783 37.6046 50.7075 37.1509 52.9342 36.513C55.4039 35.8047 56.8067 34.9832 56.8067 34.4057C56.8067 33.8282 55.404 33.0067 52.9342 32.2995C50.7074 31.6615 47.6786 31.2079 44.0471 31.2079Z" fill="#004578"/>
</svg>
