<svg width="59" height="60" viewBox="0 0 59 60" fill="none" xmlns="http://www.w3.org/2000/svg">
<path d="M0.139648 59.0402V0.959717H5.56893V23.753H11.2998C12.3313 21.6288 14.5004 20.2437 16.8942 20.2437C17.5923 20.2437 18.275 20.3604 18.9318 20.5914L23.3017 16.2208C23.0707 15.5641 22.954 14.8815 22.954 14.1838C22.9555 10.7512 25.7481 7.95884 29.1795 7.95884C32.6129 7.95884 35.4048 10.7514 35.4048 14.1838C35.4048 14.8803 35.2878 15.5625 35.0563 16.2201L39.4273 20.5914C40.0832 20.3605 40.7659 20.2438 41.4648 20.2438C42.1617 20.2438 42.8427 20.3604 43.4977 20.5911L48.9446 15.1426H45.7706V9.71348H58.2197V22.1637L52.7905 22.1635V18.9864L47.3431 24.4328C47.5732 25.0869 47.6895 25.7689 47.6895 26.4684C47.6901 28.1272 47.0412 29.6895 45.862 30.867C44.6845 32.0432 43.1234 32.691 41.4665 32.691C38.0319 32.691 35.2394 29.8995 35.2394 26.4684C35.2394 25.768 35.3558 25.0846 35.5863 24.4285L31.2182 20.0604C30.56 20.2916 29.8767 20.4084 29.1793 20.4084C28.4812 20.4084 27.7986 20.2917 27.1418 20.0607L22.7717 24.4291C23.0028 25.0861 23.1194 25.7695 23.1194 26.4685C23.1196 28.1281 22.4718 29.6901 21.2948 30.8667C20.1182 32.0432 18.5563 32.6911 16.8968 32.6911C14.5014 32.6911 12.3318 31.3069 11.2998 29.1837H5.56893V53.6106H6.94845V44.4693H15.9297V53.6106H19.5106V34.6896H28.4918V53.6107H32.0736V46.4133H41.0547V53.6107H44.6358V39.5348H53.6169V53.6107H58.2197V59.0402H0.139648ZM41.4641 25.6731C41.0261 25.6734 40.6697 26.0301 40.6697 26.4686C40.6701 26.9066 41.0268 27.2638 41.4646 27.2638C41.903 27.2638 42.2597 26.9071 42.2597 26.4686C42.2597 26.0305 41.9029 25.6737 41.4641 25.6731ZM16.8943 25.6731C16.4556 25.6734 16.0987 26.0301 16.0987 26.4686C16.099 26.9066 16.4559 27.2638 16.8939 27.2638C17.3323 27.2638 17.6889 26.9071 17.6889 26.4686C17.6889 26.0305 17.3325 25.6737 16.8943 25.6731ZM29.1794 13.3887C28.741 13.3887 28.3844 13.7454 28.3844 14.1837C28.3844 14.3955 28.4672 14.5951 28.6176 14.7457C28.7678 14.8962 28.9674 14.9791 29.1793 14.979C29.6168 14.9785 29.9737 14.6217 29.9737 14.1837C29.9739 13.9716 29.8911 13.7724 29.7409 13.622C29.5904 13.4716 29.3911 13.3887 29.1794 13.3887Z" fill="#004178"/>
</svg>
