<svg width="177" height="54" viewBox="0 0 177 54" fill="none" xmlns="http://www.w3.org/2000/svg">
<path fill-rule="evenodd" clip-rule="evenodd" d="M17.1424 51.7515C17.2832 51.8458 17.1048 51.7483 17.3885 51.8918C17.4018 51.8983 17.5946 51.9893 17.6246 52.0011C17.7974 52.0697 18.018 52.1211 18.2031 52.1897C19.4566 52.6536 20.5272 52.8443 21.804 53.1839C24.2123 53.8235 27.7611 53.9799 30.1783 53.6135C30.8 53.5193 31.5082 53.6275 32.1045 53.41C32.9734 53.0928 33.9332 53.0232 34.7633 52.7736L37.3612 51.9701C37.39 51.9529 37.4742 51.8886 37.4975 51.8704L37.636 51.7515C37.6205 51.5415 37.6272 51.3058 37.5906 51.1076L37.3545 49.2177C37.2869 48.3927 37.1351 47.6203 37.0774 46.7139L36.7394 44.2283C36.5166 43.4473 36.7084 42.4477 36.541 41.5981C36.4446 41.1074 36.5 41.6495 36.408 41.1256C36.3715 40.9156 36.3748 40.6135 36.3648 40.3906C36.3393 39.8614 36.2451 39.645 36.1853 39.2036L35.8772 36.7566C35.8217 35.4934 35.6633 35.0831 35.6256 34.181L35.0105 28.4288C34.9617 28.2274 34.9019 28.1727 34.873 27.8577C34.8331 27.4185 34.8354 26.9053 34.8143 26.4574C34.7822 25.8028 34.668 25.7975 34.617 25.2896C34.5738 24.8482 34.6181 24.379 34.5217 23.9494L33.819 17.669C33.8035 17.1794 33.8224 16.7905 33.2738 16.813C32.7473 16.8354 32.386 18.0665 32.1832 18.5518C32.1477 18.6375 32.0458 18.8657 31.9826 19.0103L29.1775 25.1964C29.1664 25.22 29.1531 25.2468 29.142 25.2693L27.3732 29.1305C27.3632 29.1552 27.351 29.183 27.3399 29.2077L26.7137 30.5201C26.7026 30.5404 26.686 30.5662 26.6749 30.5876C26.6627 30.609 26.6472 30.6358 26.6361 30.6572L22.9732 38.6872C22.9588 38.7172 22.9156 38.8029 22.9012 38.8339C22.7682 39.12 22.9012 38.82 22.8336 38.985C21.8405 41.4074 20.6679 43.8051 19.5486 46.1825C19.4732 46.3421 19.5209 46.2478 19.451 46.415L17.3098 51.1119C17.1846 51.4044 17.189 51.3701 17.1424 51.7515Z" fill="#015998"/>
<path fill-rule="evenodd" clip-rule="evenodd" d="M1.25086 34.9287C1.34839 35.6519 1.67423 36.1533 1.93246 36.8326L5.41806 42.9908L6.96192 44.8164C6.97855 44.8336 7.00071 44.8561 7.01734 44.8732L8.37611 46.2424C8.56452 46.4321 8.65983 46.4899 8.8427 46.6528C8.85822 46.6678 8.8826 46.6881 8.89812 46.7031L10.6182 48.1388C10.6381 48.1516 10.6636 48.1698 10.6836 48.1838L12.0235 49.1501C12.0446 49.1641 12.0723 49.1791 12.0933 49.1919C12.254 49.2894 12.1997 49.2466 12.3726 49.358C12.9334 49.7169 13.4964 50.1636 14.1359 50.3822L17.4287 44.0365C17.4398 44.0129 17.4531 43.984 17.463 43.9604L19.3128 40.3874C19.3826 40.2438 19.5145 39.9685 19.5954 39.812L19.7883 39.4767C19.8005 39.4564 19.816 39.4285 19.8282 39.4081L23.9965 31.3075C24.1694 30.9797 24.3489 30.5522 24.5107 30.2093C24.7368 29.7315 24.8554 29.6737 25.0859 29.1765C25.1857 28.9644 25.2267 28.8776 25.3331 28.6537L28.4208 22.624C28.433 22.6005 28.4463 22.5726 28.4574 22.549L29.3041 20.9088C29.3152 20.8863 29.3307 20.8595 29.3429 20.837C29.3584 20.807 29.4039 20.7223 29.4194 20.6923L30.2905 18.9632C30.3758 18.7864 30.357 18.8153 30.4335 18.676C30.4445 18.6567 30.4612 18.6289 30.4723 18.6096C30.4833 18.5903 30.5011 18.5635 30.5122 18.5442L31.145 17.3282C31.3234 16.9683 31.5994 16.5611 31.6138 16.1765C31.5939 16.1583 31.5617 16.1047 31.5528 16.1229L31.1638 15.8037L23.9045 20.3956C23.8779 20.4127 23.8014 20.4663 23.7748 20.4834L23.6418 20.5702C23.4656 20.6784 23.2916 20.7684 23.1475 20.8563L17.9972 24.1357C17.7368 24.3286 17.7712 24.2589 17.5174 24.4132C17.4963 24.4261 17.4686 24.4432 17.4486 24.4561L10.6514 28.8112C10.6226 28.8294 10.5428 28.8808 10.5151 28.898L9.1763 29.7454C9.15414 29.7583 9.12643 29.7744 9.10537 29.7883C8.96794 29.874 8.79837 29.9994 8.65762 30.0915L5.83478 31.871C5.57544 32.0296 5.62753 32.0178 5.38703 32.1807L3.77557 33.1974C2.97316 33.6795 1.87816 34.2495 1.25086 34.9287Z" fill="#015998"/>
<path fill-rule="evenodd" clip-rule="evenodd" d="M40.6947 50.3619C41.2322 50.3169 41.7232 49.899 42.1199 49.6087C42.3482 49.4416 42.1366 49.5808 42.3848 49.4437L47.7966 45.0061L49.4192 43.0465C49.5865 42.8526 49.6996 42.7798 49.8437 42.5901L51.8874 39.2175C52.5246 38.01 52.8239 37.2076 53.2661 36.1373C53.3581 35.9144 53.4246 35.7966 53.4911 35.5426C53.5288 35.4012 53.5332 35.338 53.5786 35.1859L53.1508 34.1424C53.1331 34.1263 53.1098 34.1049 53.0921 34.0877L51.7511 32.7003C51.6591 32.606 51.6979 32.6457 51.5859 32.5375L48.8661 29.7037C48.6378 29.4926 48.5204 29.3844 48.3131 29.1626L45.273 25.9946C45.1788 25.9078 45.2631 25.9978 45.1068 25.8414L43.6272 24.2686C43.523 24.1775 43.4599 24.1293 43.349 24.0072L42.2518 22.8276C42.2297 22.804 42.1643 22.7365 42.1421 22.714C42.1255 22.6958 42.1022 22.6744 42.0856 22.6573L41.9725 22.5416C41.8495 22.4151 41.7852 22.3433 41.6556 22.2041C41.1103 21.6191 40.4785 21.0984 40.0075 20.477L39.4179 19.8781C39.4002 19.861 39.3769 19.8396 39.3592 19.8224C39.3569 19.8192 39.2328 19.6938 39.1918 19.6521L37.5249 17.9529C37.382 17.8018 37.3642 17.7686 37.2091 17.6186L36.1285 16.4326C34.4383 16.5719 35.3216 17.2554 35.6098 20.1449L36.5341 25.4268C36.8777 27.0413 37.1137 29.7926 37.4241 30.9175L38.16 35.233C38.3717 36.1448 38.4515 37.4229 38.7086 38.3454C38.8139 38.7278 38.8239 39.1178 38.8505 39.5399L39.1475 41.1395C39.1663 41.2124 39.2129 41.3441 39.2228 41.3763C39.276 41.5541 39.2217 41.2648 39.2904 41.6066C39.3569 41.9334 39.3503 42.4134 39.3769 42.7583L40.6947 50.3619Z" fill="#015998"/>
<path fill-rule="evenodd" clip-rule="evenodd" d="M0.435699 31.4103C1.0774 31.4425 1.44979 31.0943 1.93744 30.7954L3.81379 29.6994C3.83485 29.6876 3.86367 29.6737 3.88694 29.6619L4.33248 29.4465C4.6162 29.2933 4.49097 29.3426 4.73147 29.2076L16.7222 22.3669C16.884 22.2791 17.048 22.2019 17.2264 22.1033L18.9376 21.0855C18.9587 21.0738 18.9864 21.0577 19.0086 21.0459L19.3023 20.8916C19.3256 20.8798 19.3544 20.8648 19.3765 20.8531C19.4065 20.837 19.4918 20.792 19.5206 20.777C19.6647 20.6988 19.8675 20.5863 20.0094 20.5134L24.8637 17.7868C24.9513 17.7375 24.9856 17.7225 25.071 17.6743C25.235 17.5811 25.1341 17.6422 25.2671 17.5565L28.817 15.5208C28.9134 15.4737 28.9644 15.4544 29.0464 15.4137L30.2755 14.6766L30.2434 13.6577L25.2838 13.5399C24.6188 13.526 24.4647 13.3985 23.8552 13.361C22.7934 13.2967 21.6796 13.2956 20.6367 13.2603C18.5819 13.1906 16.4495 12.9153 14.428 12.8756L4.79353 12.4235L3.88805 13.8045C3.88805 13.8045 3.80936 13.902 3.7473 13.9931L3.05683 15.2434C2.8529 15.6237 2.72655 15.8701 2.54368 16.2708C2.39185 16.604 2.21674 17.0765 2.09039 17.3325C2.0117 17.4932 1.892 17.715 1.84989 17.8361L1.26471 19.5053C1.16163 19.922 1.14612 19.8428 1.07851 20.0795L0.322652 23.0687C0.229555 23.5336 0.324869 23.9879 0.192981 24.4861C-0.122884 25.6828 0.037819 27.5706 0.0644182 28.8208C0.0843676 29.8247 0.242854 30.5575 0.435699 31.4103Z" fill="#015998"/>
<path fill-rule="evenodd" clip-rule="evenodd" d="M37.6688 13.362C37.5636 13.7531 37.5968 14.0049 37.4627 14.3477C37.2078 14.9991 36.8897 15.1384 37.292 15.6034L39.7469 17.8436C39.9054 17.9947 39.8921 17.97 40.0384 18.0964C40.055 18.1114 40.0805 18.1318 40.0971 18.1468C40.1138 18.1618 40.1381 18.1821 40.1548 18.1982L41.1112 19.095C41.129 19.1121 41.1533 19.1335 41.1711 19.1496L43.8742 21.6727C44.0405 21.8098 43.9474 21.7316 44.0637 21.8205C44.3519 22.0423 44.4084 22.0991 44.6434 22.3187L47.3011 24.7786C47.4352 24.9146 47.4607 24.95 47.5726 25.0561L53.8522 30.7933C53.9076 30.8361 54.1504 31.0247 54.1603 31.03L54.4906 31.1061C55.0714 29.2441 54.8663 23.7994 54.1592 21.4916C54.0296 21.0663 54.0174 20.6388 53.8755 20.252C53.0343 17.9464 52.9678 17.2768 51.6545 14.9177L50.3677 12.8317C50.2647 12.6849 50.3168 12.7535 50.1948 12.5574L49.8934 12.115C49.2129 12.0571 48.2609 12.0968 47.6158 12.265L44.568 12.6346C44.0859 12.6978 44.2189 12.7353 43.8809 12.7889C43.3899 12.866 42.7637 12.806 42.2627 12.8928C40.8419 13.1392 39.0819 13.2828 37.6688 13.362Z" fill="#015998"/>
<path fill-rule="evenodd" clip-rule="evenodd" d="M7.16298 9.64116L9.99357 9.954C10.223 9.96257 10.5389 9.96686 10.7616 9.99793L18.6106 10.9654C19.7266 11.2032 20.3972 11.0061 22.197 11.3543C22.4586 11.4057 22.7545 11.4068 22.9895 11.4411C23.4505 11.5075 23.8916 11.6071 24.4081 11.6436C25.083 11.6907 25.3291 11.7035 25.8965 11.8246C26.4097 11.935 26.9694 11.8643 27.498 11.9339C28.3481 12.0453 29.545 12.3957 30.3874 12.2628L30.6389 11.7293C30.6511 11.7057 30.6644 11.6778 30.6766 11.6543C31.52 9.98185 31.857 11.2214 31.0412 9.65509L29.2203 6.58989C29.1183 6.4024 29.1904 6.53525 29.1062 6.3724L26.1725 1.38838C25.9209 0.915905 25.901 0.870907 25.185 0.900905L21.644 1.40659C21.4301 1.44945 20.7984 1.6048 20.5135 1.68622C17.2075 2.6376 19.1814 2.00335 16.5602 3.00722L13.8937 4.29394C13.5457 4.46643 13.2741 4.61321 12.986 4.81034L10.141 6.78167C10.1232 6.79774 10.0977 6.81809 10.08 6.83309L8.2081 8.45086C8.19148 8.46693 8.1682 8.48943 8.15158 8.5055C8.13385 8.52157 8.11057 8.54407 8.09284 8.55907C7.80025 8.82692 7.25275 9.27689 7.16298 9.64116Z" fill="#015998"/>
<path fill-rule="evenodd" clip-rule="evenodd" d="M33.1577 9.89186C33.3251 9.85329 33.6443 9.56831 34.5254 9.80401C35.2735 10.0044 35.8332 10.1726 36.4616 10.7243L37.3161 11.9082C37.919 11.861 38.144 11.7453 38.6749 11.635L47.6455 9.53402C47.5923 9.18476 46.4585 8.17981 46.0672 7.88411L40.2941 3.91146C39.2201 3.37256 37.6031 2.63653 36.415 2.30119L33.8205 1.50837L29.3152 0.888046C29.2498 1.48159 30.4091 3.70468 30.6807 4.31215L31.2581 5.68994C31.3479 5.85707 31.3224 5.78958 31.4077 5.97064C31.5219 6.21062 31.5396 6.30919 31.6493 6.58668L32.649 8.82906C32.905 9.41081 32.813 9.39367 33.1577 9.89186Z" fill="#015998"/>
<path fill-rule="evenodd" clip-rule="evenodd" d="M88.5188 15.9515C88.3049 16.0437 86.8664 16.1658 85.645 17.1729C85.2228 17.5211 84.9446 17.7986 84.6221 18.2239C84.4714 18.4232 84.3716 18.571 84.2286 18.796L83.8818 19.4303C83.1037 21.0727 83.3897 24.9178 83.3919 27.0949C83.3941 29.6533 83.3043 32.9317 85.993 34.5559C87.5535 35.4987 89.2869 35.8169 91.0934 35.4258C91.6453 35.3059 91.7517 35.4537 92.328 35.1923L93.3466 34.693C93.4663 34.6309 93.6059 34.5666 93.7079 34.5023C94.2631 34.1552 95.5842 32.6714 95.7737 31.8978L96.1306 30.2801C96.4132 29.1005 96.2514 21.7744 96.0375 20.5574L95.6984 19.3606C95.6884 19.3371 95.6729 19.3114 95.6629 19.2889C95.6518 19.2664 95.6352 19.2407 95.6241 19.2203C95.6186 19.2085 95.5266 19.051 95.5055 19.0135C95.3703 18.7778 95.3082 18.6793 95.1054 18.4403C94.6654 17.9207 94.927 18.0096 94.1379 17.3422C93.6979 16.9693 92.7703 16.393 92.2438 16.2012C91.5988 15.9676 89.2215 15.6462 88.5188 15.9515ZM89.0087 19.8085C88.3271 20.2692 87.999 20.3977 87.7142 21.0995L87.4915 22.2694C87.4881 23.9568 87.3086 28.7383 87.722 30.3058C87.9935 31.3364 89.4387 32.2878 91.13 31.2668L91.5168 30.9839C92.0188 30.474 92.0199 29.7851 92.0177 29.0244C92.0155 27.7516 92.2106 21.6973 91.8204 20.9623C91.6232 20.5917 91.366 20.3913 91.0901 20.1877C90.4539 19.7185 89.4698 19.4978 89.0087 19.8085Z" fill="#015998"/>
<path fill-rule="evenodd" clip-rule="evenodd" d="M163.348 35.3766L167.292 35.3659L171.9 26.6203C171.912 26.5978 171.926 26.5699 171.938 26.5474L172.531 25.2939C172.699 25.0796 172.35 25.2189 172.834 25.0721C173.018 25.5446 172.911 34.0963 172.893 35.3712L177 35.3744L176.992 16.0501L173.276 16.049L170.386 21.6255C170.255 21.8462 170.218 21.9941 170.075 22.2919L167.914 26.5238C167.699 26.8795 167.691 26.9749 167.444 27.1099L167.425 16.0426L163.372 16.049L163.348 35.3766Z" fill="#015998"/>
<path fill-rule="evenodd" clip-rule="evenodd" d="M129.111 30.8457L125.397 29.7037C125.133 30.054 125.113 30.444 124.855 30.7568L124.45 31.1125C123.691 31.6825 122.64 31.9428 121.841 31.4971L121.456 31.2304C120.377 30.339 120.719 27.5041 120.719 25.5949C120.719 24.5589 120.715 23.5229 120.717 22.488C120.72 21.3844 120.662 20.7631 121.578 20.1931C122.306 19.7399 123.086 19.4688 123.959 20.0249C124.737 20.5209 125.059 20.8006 125.341 21.8976L128.19 21.0105C128.516 20.928 128.403 21.0105 128.703 20.8659L129.122 20.5584C129.008 19.561 128.508 18.7617 128.061 18.1928L127.483 17.5832C127.333 17.4482 127.388 17.4975 127.251 17.3689C126.474 16.6372 124.602 15.9022 123.631 15.8712C122.132 15.823 121.697 15.8476 120.582 16.229C120.057 16.409 119.879 16.4797 119.429 16.7068L118.607 17.3111C118.589 17.3261 118.565 17.3475 118.548 17.3625C118.532 17.3764 118.506 17.3968 118.489 17.4118L117.647 18.315C116.223 20.1995 116.495 23.2176 116.495 25.7021C116.495 28.3944 116.233 31.5068 117.902 33.4824L118.324 33.942C118.463 34.0834 118.55 34.1627 118.717 34.2956L120.431 35.2137C121.624 35.6916 123.559 35.6841 124.925 35.3155C125.943 35.0412 126.273 34.8591 127.081 34.2838C128.105 33.5542 129.017 32.1475 129.111 30.8457Z" fill="#015998"/>
<path fill-rule="evenodd" clip-rule="evenodd" d="M112.931 30.8457L112.75 30.7547C112.634 30.7054 112.605 30.6925 112.49 30.6518C111.819 30.4086 109.558 29.7197 108.995 29.7604C108.762 30.2008 108.89 30.8672 107.562 31.4982C106.557 31.9749 105.399 31.6032 104.776 30.7579C104.145 29.9018 104.384 27.0402 104.384 25.7021C104.384 25.0528 104.28 21.7027 104.494 21.2291L105.638 19.9885C106.94 19.3253 108.213 20.0785 108.791 21.0727L108.863 21.2227C108.875 21.2462 108.885 21.2773 108.896 21.2998C109.17 21.8462 109.499 21.7337 110.096 21.5377C110.217 21.498 110.373 21.4541 110.516 21.4037L112.031 21.0223C112.697 20.8348 112.423 21.0502 112.908 20.6656C112.93 20.0538 112.526 19.351 112.231 18.8271C111.619 17.7375 111.448 17.8275 110.62 17.069C110.308 16.7829 110.309 16.9136 109.748 16.5247L109.623 16.4369C109.427 16.3212 109.626 16.4229 109.323 16.2997C107.697 15.6387 105.386 15.719 103.982 16.2719C103.367 16.514 103.751 16.3876 103.322 16.6704C102.159 17.4365 101.541 17.7493 100.839 19.3146C100.005 21.1745 100.28 26.2078 100.29 28.9162C100.293 29.7304 100.368 31.2507 100.746 31.9653C101.126 32.6853 101.445 33.3784 102.043 33.9323C102.129 34.0106 102.154 34.0427 102.262 34.1434C103.037 34.8677 104.033 35.2191 104.872 35.3905C105.17 35.4505 105.192 35.5073 105.558 35.5448C107.28 35.7247 109.064 35.4794 110.5 34.5516L110.755 34.3662C110.773 34.3523 110.799 34.3309 110.818 34.3159L111.863 33.281C112.321 32.7056 112.833 31.6996 112.931 30.8457Z" fill="#015998"/>
<path fill-rule="evenodd" clip-rule="evenodd" d="M144.87 35.3659C144.857 34.7155 144.862 34.0684 144.862 33.417C144.861 33.0871 144.867 32.7731 144.875 32.4442C144.888 31.9257 145.001 31.7714 144.572 31.6964C144.535 31.9107 144.458 31.7125 144.528 32.3789L144.353 35.0637C143.764 35.0316 143.62 34.933 143.024 34.947L134.257 34.977C133.708 34.9405 133.787 34.8837 133.699 34.7798C133.419 34.3866 133.556 21.8676 133.567 20.237C133.57 19.7238 133.518 16.874 133.625 16.6233C133.807 16.1969 136.56 16.3661 137.145 16.3661L142.798 16.3715C143.637 16.3704 143.899 16.3147 144.558 16.5236C144.552 17.0122 144.548 17.4986 144.545 17.9871C144.541 18.9792 144.722 19.0574 144.394 19.3424C144.081 19.6156 141.432 19.4635 140.803 19.4592L137.277 19.4796C136.904 20.5263 137.03 20.1974 137.036 21.6309C137.046 24.5171 136.86 24.155 140.249 24.1615C140.803 24.1625 141.364 24.1786 141.915 24.1679C142.648 24.154 143.563 23.8293 143.507 24.8268C143.484 25.2457 143.43 24.9425 143.386 25.49C143.306 26.4842 143.608 26.8817 142.904 27.0252H140.359C139.834 27.0242 139.322 27.0402 138.802 27.0477C138.216 27.0563 137.919 26.8356 137.778 26.8656C137.525 26.9181 137.208 27.322 137.117 27.5609C136.946 28.0034 137.048 31.1629 137.098 31.6761L137.409 31.69L137.375 27.4784H143.694L143.725 27.4163L143.747 23.8422L137.364 23.8197L137.41 19.7474C138.878 19.6681 143.916 19.9317 144.859 19.6467L144.834 16.0565C143.017 16.0522 134.236 15.9162 133.188 16.1005L133.171 35.3155C134.133 35.4987 143.192 35.3884 144.87 35.3659ZM144.572 31.6964L137.409 31.69L137.098 31.6761C137.048 31.1629 136.946 28.0034 137.117 27.5609C137.208 27.322 137.525 26.9181 137.778 26.8656C137.919 26.8356 138.216 27.0563 138.802 27.0477C139.322 27.0402 139.834 27.0242 140.359 27.0252H142.904C143.608 26.8817 143.306 26.4842 143.386 25.49C143.43 24.9425 143.484 25.2457 143.507 24.8268C143.563 23.8293 142.648 24.154 141.915 24.1679C141.364 24.1786 140.803 24.1625 140.249 24.1615C136.86 24.155 137.046 24.5171 137.036 21.6309C137.03 20.1974 136.904 20.5263 137.277 19.4796L140.803 19.4592C141.432 19.4635 144.081 19.6156 144.394 19.3424C144.722 19.0574 144.541 18.9792 144.545 17.9871C144.548 17.4986 144.552 17.0122 144.558 16.5236C143.899 16.3147 143.637 16.3704 142.798 16.3715L137.145 16.3661C136.56 16.3661 133.807 16.1969 133.625 16.6233C133.518 16.874 133.57 19.7238 133.567 20.237C133.556 21.8676 133.419 34.3866 133.699 34.7798C133.787 34.8837 133.708 34.9405 134.257 34.977L143.024 34.947C143.62 34.933 143.764 35.0316 144.353 35.0637L144.528 32.3789C144.458 31.7125 144.535 31.9107 144.572 31.6964ZM143.725 27.4163C144.029 27.4163 144.043 27.637 144.028 26.5635C144.012 25.3796 144.111 24.4946 143.818 23.4318C143.869 23.8293 143.929 23.5733 143.376 23.6054C143.153 23.6183 142.811 23.6022 142.576 23.6011L137.668 23.5733L137.629 19.9735C138.97 19.9445 144.17 20.1599 144.988 19.7828L145.063 16.4819C144.964 15.9397 145.158 16.2612 144.834 16.0565L144.859 19.6467C143.916 19.9317 138.878 19.6681 137.41 19.7474L137.364 23.8197L143.747 23.8422L143.725 27.4163Z" fill="#1B5C8B"/>
<path fill-rule="evenodd" clip-rule="evenodd" d="M71.5951 22.1666L71.6029 24.5568C72.8952 24.6414 74.7139 24.7764 75.5994 23.9611L75.7524 23.7876C76.2688 23.074 76.5381 20.8466 75.1971 20.0356C74.4811 19.6017 73.8926 19.7399 72.8641 19.741C71.3458 19.7421 71.5951 19.2814 71.5951 22.1666ZM67.5055 35.3798L71.6084 35.3755L71.5985 28.343C73.5524 28.0988 74.8081 28.6516 76.4606 27.9895C77.1555 27.7109 78.1673 27.1442 78.6805 26.6063C79.0861 26.1831 79.4585 25.5489 79.7023 25.0121C79.8176 24.7561 79.74 24.9725 79.8697 24.6307C79.9306 24.4711 79.9439 24.4036 80.0038 24.2429C80.6688 22.4376 80.3529 19.2942 78.6439 17.6518L78.1075 17.2018C77.9113 17.0486 78.1197 17.1718 77.7916 16.9833C77.7628 16.9661 77.6753 16.9201 77.6442 16.9051C77.6209 16.8933 77.5921 16.8794 77.5677 16.8686L76.7376 16.4937C74.9932 15.7426 69.7786 16.0876 67.5299 16.0405L67.5055 35.3798Z" fill="#015998"/>
<path fill-rule="evenodd" clip-rule="evenodd" d="M155.585 19.8256C155.224 19.8653 155.341 19.9842 155.328 20.4385C155.228 23.5851 155.533 33.5713 155.216 34.917C154.602 35.2116 155.288 35.0531 154.659 35.1366L152.107 35.1291C151.628 34.5538 151.787 34.3588 151.791 33.4171L151.796 20.1278C151.734 19.546 151.652 19.8942 151.553 19.381C150.811 19.381 150.076 19.3874 149.336 19.396C148.396 19.4067 148.251 19.5396 147.544 19.1732L147.581 16.5279C148.875 16.1112 151.962 16.3662 153.548 16.3662C154.96 16.3662 158.49 16.2173 159.569 16.5001C159.666 18.5464 159.863 19.14 159.023 19.3435C158.914 19.3692 158.728 19.3885 158.582 19.3982L155.544 19.381C155.456 19.5181 155.531 19.5696 155.531 19.7571L159.868 19.7196L159.881 16.0598L147.215 16.0415L147.202 19.7196L151.428 19.7271L151.475 35.3102C152.121 35.4987 154.747 35.3927 155.595 35.3841L155.585 19.8256ZM155.585 19.8256L155.531 19.7571C155.531 19.5696 155.456 19.5181 155.544 19.381L158.582 19.3982C158.728 19.3885 158.914 19.3692 159.023 19.3435C159.863 19.14 159.666 18.5464 159.569 16.5001C158.49 16.2173 154.96 16.3662 153.548 16.3662C151.962 16.3662 148.875 16.1112 147.581 16.5279L147.544 19.1732C148.251 19.5396 148.396 19.4067 149.336 19.396C150.076 19.3874 150.811 19.381 151.553 19.381C151.652 19.8942 151.734 19.546 151.796 20.1278L151.791 33.4171C151.787 34.3588 151.628 34.5538 152.107 35.1291L154.659 35.1366C155.288 35.0531 154.602 35.2116 155.216 34.917C155.533 33.5713 155.228 23.5851 155.328 20.4385C155.341 19.9842 155.224 19.8653 155.585 19.8256Z" fill="#1B5C8B"/>
</svg>
