<svg width="60" height="50" viewBox="0 0 60 50" fill="none" xmlns="http://www.w3.org/2000/svg">
<path d="M6.42867 4.06834C5.24726 4.06834 4.28534 4.9822 4.28534 6.10388V20.9335C4.28534 22.0128 5.17814 22.9004 6.30038 22.9641L6.42867 22.963H53.5719L53.6821 22.9641C54.8115 22.9094 55.7148 22.0196 55.7148 20.9335V6.10388C55.7148 4.9822 54.7525 4.0696 53.5719 4.0696L6.42867 4.06834ZM19.8087 36.48C19.8087 37.6046 18.849 38.5164 17.6654 38.5164C16.4829 38.5151 15.523 37.6046 15.523 36.4813C15.523 35.3579 16.4828 34.4471 17.6654 34.4471C18.8488 34.4458 19.8087 35.3577 19.8087 36.48ZM49.2888 38.5164H27.7588L27.7033 38.5177L27.6488 38.5164H27.512V38.5092C26.4193 38.4166 25.5609 37.5433 25.5609 36.4825C25.5609 35.4205 26.4192 34.5482 27.512 34.4558V34.4461H49.3482V34.4474C50.5297 34.4486 51.4873 35.3606 51.4873 36.4814C51.4873 37.6061 50.5276 38.518 49.3438 38.518L49.2888 38.5164ZM12.8572 36.48C12.8572 37.6046 11.8968 38.5164 10.7142 38.5164C9.53128 38.5151 8.57163 37.6046 8.57163 36.4813C8.57163 35.3579 9.5314 34.4471 10.7142 34.4471C11.8968 34.4458 12.8572 35.3577 12.8572 36.48ZM19.8087 13.5177C19.8087 14.6414 18.849 15.5532 17.6654 15.5532C16.4829 15.5523 15.523 14.6415 15.523 13.5183C15.523 12.3955 16.4828 11.4837 17.6654 11.4837C18.8488 11.483 19.8087 12.3954 19.8087 13.5177ZM6.29115 27.0352C5.1737 27.1038 4.28534 27.9889 4.28534 29.0666V43.8967C4.28534 45.0164 5.24738 45.9307 6.42867 45.9307H53.5719C54.7527 45.9307 55.7148 45.0178 55.7148 43.8967V29.0666C55.7148 27.9829 54.8167 27.0941 53.691 27.0352L53.5719 27.0376H6.42867L6.29115 27.0352ZM53.5721 50H6.42867C2.88373 50 0 47.2623 0 43.8967V29.0666C0 27.5054 0.620403 26.0812 1.63909 25.0002C0.620523 23.9195 0 22.4938 0 20.9335V6.10388C0 2.73771 2.88373 0 6.42855 0H53.5718C57.1159 0 59.9994 2.73794 59.9994 6.10388L60 20.9335C60 22.4938 59.3792 23.9204 58.36 25.0002C59.3792 26.0802 59.9994 27.5054 59.9994 29.0666L60 43.8967C60.0002 47.2612 57.1161 50 53.5721 50ZM49.2888 15.5532H27.7588L27.7033 15.5538L27.6488 15.5532H27.512V15.5457C26.4193 15.4533 25.5609 14.581 25.5609 13.5189C25.5609 12.4577 26.4192 11.5847 27.512 11.4924V11.4837H49.3482V11.4843C50.5297 11.4855 51.4873 12.3967 51.4873 13.5183C51.4873 14.6421 50.5276 15.5539 49.3438 15.5539L49.2888 15.5532ZM12.8572 13.5177C12.8572 14.6414 11.8968 15.5532 10.7142 15.5532C9.53128 15.5523 8.57163 14.6415 8.57163 13.5183C8.57163 12.3955 9.5314 11.4837 10.7142 11.4837C11.8968 11.483 12.8572 12.3954 12.8572 13.5177Z" fill="#004578"/>
</svg>
