<svg width="193" height="50" viewBox="0 0 193 50" fill="none" xmlns="http://www.w3.org/2000/svg">
<path fill-rule="evenodd" clip-rule="evenodd" d="M98.6859 49.3163C99.4026 49.1927 99.2289 48.822 99.3408 47.8285L99.8221 44.3014C100.122 42.262 99.31 42.7013 103.448 42.7013C103.448 43.9282 103.215 44.9217 103.085 45.9688L102.676 49.3163H109.367C109.75 47.7212 111.059 36.2086 111.514 33.177C111.621 32.4743 111.811 31.5083 111.811 30.8443H105.378C104.861 30.8443 105.023 31.3011 104.871 32.3495C104.677 33.6912 104.22 36.6704 104.22 37.7089H100.617C100.75 37.4418 101.518 31.5532 101.518 30.8443H95.2132L92.7686 49.3163H98.6859Z" fill="#005A9C"/>
<path fill-rule="evenodd" clip-rule="evenodd" d="M56.2279 49.3162H62.5325C62.62 48.299 62.8375 47.0959 62.9932 46.0187L63.4332 42.7013H66.9072C66.9072 43.1681 66.7837 43.8695 66.7065 44.3787L66.0966 48.8083C66.0709 49.1415 65.9409 49.3162 66.3925 49.3162H72.8259C72.8259 48.2853 74.6272 35.5296 74.8948 33.2256C74.9926 32.3844 75.1419 31.8465 75.1419 30.8442H68.4512L67.7847 35.939C67.7204 36.3734 67.5608 37.2458 67.5505 37.7088H64.0765L64.9772 30.8442H58.5439C58.5439 33.0384 56.2279 46.6128 56.2279 49.3162Z" fill="#005A9C"/>
<path fill-rule="evenodd" clip-rule="evenodd" d="M18.1418 49.3163H24.4465L24.9611 45.8216C26.8924 45.8216 28.825 45.824 30.7563 45.8253C35.4101 45.8303 35.0717 41.4582 35.4384 38.8858C35.5671 37.9884 35.6713 37.1859 35.7691 36.3359C35.9904 34.4051 36.5746 32.674 34.8929 31.4446C34.3795 31.0702 33.4338 30.8443 32.5524 30.8443H20.2005C20.2005 32.0986 19.3435 38.2106 19.1827 40.0915L18.1418 49.3163Z" fill="#005A9C"/>
<path fill-rule="evenodd" clip-rule="evenodd" d="M175.887 49.3163H187.339C188.762 49.3163 189.98 48.9231 190.72 48.2279C191.74 47.2706 191.848 46.7426 192.062 45.1613C192.34 43.0932 193 38.8496 193 37.0848C193 36.7441 192.819 36.4295 192.659 36.1674C192.505 35.9091 192.591 36.0314 192.398 35.7955L192.09 35.471C191.691 35.104 191.06 34.7134 190.298 34.7134H183.865C183.865 33.5289 184.352 32.01 184.379 30.8443H177.946L177.341 35.4997C177.115 37.1609 176.975 38.6125 176.734 40.2775C176.502 41.8725 176.324 43.3178 176.121 44.9254C176.033 45.6206 175.885 46.5754 175.796 47.2307C175.636 48.4151 175.321 49.3163 175.887 49.3163Z" fill="#005A9C"/>
<path fill-rule="evenodd" clip-rule="evenodd" d="M111.424 49.3163H126.993C126.993 48.6098 127.186 47.7362 127.262 46.9561C127.346 46.0974 127.508 45.4596 127.508 44.4486H118.501C118.501 43.6461 118.742 42.9247 118.758 42.2021H127.894C127.917 41.1923 128.408 39.0381 128.408 37.9585H122.876C121.542 37.9585 120.718 38.0833 119.402 38.0833C119.402 37.3107 119.509 36.4632 119.659 35.8367H128.794C128.794 35.2701 129.308 31.2324 129.438 30.9691H113.869L111.424 49.3163Z" fill="#005A9C"/>
<path fill-rule="evenodd" clip-rule="evenodd" d="M79.0015 49.3163H86.5928C88.2977 49.3163 90.0346 48.0719 90.7076 47.0672C91.4603 45.9451 91.5311 44.7894 91.7189 43.3004C91.9119 41.7727 92.5089 42.2021 85.4348 42.2021C85.4348 42.8486 85.2277 43.4839 85.1775 44.0742H81.7035C81.7035 42.9335 82.7341 37.327 82.8615 35.8367H86.3355C86.3355 36.628 86.2068 36.8789 86.2068 37.7089C93.5511 37.7089 92.3841 38.2144 92.6955 36.0152L92.8975 33.7149C92.8975 32.0986 90.9623 30.9691 89.2948 30.9691H81.3175C80.2907 30.9691 79.3219 31.4671 78.6644 31.8902C77.8859 32.3932 77.4112 32.9199 76.9814 33.7524C76.3278 35.0167 75.781 41.0363 75.5198 42.8186C75.2611 44.5947 74.6152 46.8488 76.3497 48.2691C76.9608 48.7684 77.9374 49.3163 79.0015 49.3163Z" fill="#005A9C"/>
<path fill-rule="evenodd" clip-rule="evenodd" d="M157.617 35.8367H163.149L162.691 39.1367C162.514 40.3261 162.375 41.387 162.238 42.5665C162.116 43.6162 161.962 44.742 161.79 45.8765L161.348 49.3163H167.652L169.454 35.8367C174.452 35.8367 173.702 36.2274 174.625 34.7371L177.045 30.8443H158.26L157.617 35.8367Z" fill="#005A9C"/>
<path fill-rule="evenodd" clip-rule="evenodd" d="M0 35.8367H6.30466C6.21717 36.8539 6.00101 38.0571 5.84403 39.1342L4.50333 49.3163H10.808L12.6093 35.8367H17.756L18.3993 30.8443H3.088C3.00308 31.1513 2.54631 31.7991 2.34173 32.1173L0.730826 34.5487C0.456766 34.9992 0.117087 35.3487 0 35.8367Z" fill="#005A9C"/>
<path fill-rule="evenodd" clip-rule="evenodd" d="M101.846 21.31C101.003 21.431 98.7 21.0479 98.0155 20.8869C93.9445 19.9296 90.0266 16.9865 88.4838 13.1586C87.7839 11.4237 87.5652 9.83612 88.6061 8.08503C88.866 7.64569 89.2044 7.1789 89.8091 7.13022C89.3922 6.57731 86.3827 5.88212 85.1784 7.75553C83.9934 9.60023 83.8325 13.5106 84.4875 15.6623C84.7834 16.6358 84.9584 17.1937 85.3907 18.0312C85.9131 19.0472 87.3246 20.993 88.2085 21.6632C89.122 22.3559 88.4851 22.0539 90.0124 23.0336C92.0775 24.3554 95.199 25.1229 98.027 24.8371C100.653 24.57 104.091 23.0561 105.764 21.2338C106.278 20.6722 106.178 20.7621 106.278 20.6098C105.778 20.9568 102.299 21.2451 101.846 21.31Z" fill="#005A9C"/>
<path fill-rule="evenodd" clip-rule="evenodd" d="M97.1988 19.7361C97.6582 19.7361 98.6798 19.7274 99.2022 19.4865C101.141 18.966 103.466 17.0352 104.739 15.7459C105.877 14.5914 107.553 13.7177 109.238 13.2497C109.759 12.4796 110.35 11.7669 110.929 11.0168C111.487 10.2967 112.154 9.54031 112.583 8.75276C110.827 8.61047 108.47 7.97643 106.692 9.40302C105.291 10.5288 105.841 10.1931 104.896 11.1554C104.577 11.4799 104.354 11.7644 104.075 12.1064L100.008 16.7731C99.4981 17.316 98.4932 17.9176 97.7585 18.0861C96.3007 18.4218 95.4799 18.136 94.4415 18.1136C94.6898 18.4431 96.6533 19.5402 97.1988 19.7361Z" fill="#005A9C"/>
<path fill-rule="evenodd" clip-rule="evenodd" d="M97.1988 19.7361C98.4495 20.2166 99.4719 20.5199 101.009 20.7284C101.771 20.8307 102.282 20.8756 103.195 20.8644C104.018 20.8544 104.649 20.626 105.378 20.6098C105.519 20.4825 105.152 20.485 105.764 20.485L106.021 20.3602H106.15C106.175 20.3427 106.219 20.2915 106.232 20.3152C106.285 20.4163 108.084 19.323 108.943 18.327L111.138 15.7135C111.614 15.1543 112.185 14.4466 112.583 13.87C111.564 13.3471 110.805 13.2322 109.238 13.2497C107.553 13.7177 105.877 14.5914 104.739 15.7459C103.466 17.0352 101.269 18.8412 99.3303 19.3617C99.0061 19.4491 97.2078 19.7311 97.1988 19.7361Z" fill="#EB1C2B"/>
<path fill-rule="evenodd" clip-rule="evenodd" d="M109.109 5.75731L111.065 2.91162C111.604 2.07414 112.114 1.37395 112.583 0.515253C112.059 0.50402 112.054 0.415404 111.535 0.390442H109.895C109.169 0.430381 108.177 0.676259 107.692 0.888437C104.927 2.0991 105.211 2.83049 104.605 3.26109C103.931 2.823 103.391 2.36245 102.592 1.9693C101.824 1.59112 101.035 1.25663 100.205 1.03946C96.6346 0.100881 92.5764 0.522742 89.5129 2.7244C88.6482 3.34471 86.4763 5.14948 86.2061 6.13174C87.3577 5.5963 88.3639 5.89335 88.8052 5.65746C88.9956 5.55636 89.289 5.08083 89.5167 4.84993C89.8641 4.49422 90.0237 4.39936 90.4109 4.09607C93.0743 2.01049 96.4403 0.937113 100.011 1.60235C100.887 1.76586 101.728 2.01548 102.494 2.31378C102.87 2.45856 103.182 2.61956 103.535 2.80303C103.954 3.02145 104.146 3.26733 104.605 3.3859L102.417 7.12898C101.698 8.4682 101.036 9.69758 100.272 11.0393C99.2864 12.7692 97.2933 15.9731 95.4959 16.8904C95.0005 17.1438 94.8783 17.1151 94.1835 17.1151V17.2399C96.5792 17.2399 97.6793 15.8445 99.0908 14.0123C101.373 11.0543 103.288 7.26128 105.452 4.20716C106.821 2.27384 108.914 1.88817 111.296 1.88817L109.109 5.75731Z" fill="#005A9C"/>
<path fill-rule="evenodd" clip-rule="evenodd" d="M109.367 5.38284H109.238L109.345 5.52887L109.367 5.38284Z" fill="#005A9C"/>
<path fill-rule="evenodd" clip-rule="evenodd" d="M26.3771 35.8367H29.5937L28.7304 40.8454L25.4764 40.9539L26.3771 35.8367Z" fill="white"/>
<path fill-rule="evenodd" clip-rule="evenodd" d="M40.6593 49.3161H34.226C34.2676 48.8323 34.5758 48.0548 34.8338 47.4042C34.9265 47.1702 35.0127 46.9527 35.0777 46.7712C35.2183 46.3775 35.3626 46.0134 35.5064 45.6505C35.6667 45.246 35.8264 44.8431 35.9797 44.4023L37.8106 39.5634C38.0698 38.8896 38.3136 38.219 38.556 37.5522C38.9031 36.5973 39.2473 35.6503 39.63 34.7132C39.8272 34.2307 39.9827 33.7668 40.1264 33.338C40.6115 31.8902 40.962 30.8441 42.332 30.8441H51.4673C51.8996 30.8441 52.2045 31.0463 52.4027 31.3097C52.6022 31.5767 52.6135 31.7572 52.6317 32.047C52.6385 32.1553 52.6463 32.2789 52.6652 32.428L54.3095 46.9335C54.3347 47.1867 54.3709 47.4456 54.4078 47.7095C54.4802 48.2274 54.5553 48.7646 54.5553 49.3161H48.1219L47.7359 46.071L41.7079 46.2021L40.6593 49.3161ZM47.3487 41.4531H43.4887L45.4213 36.4108L46.7053 36.4607L47.3487 41.4531Z" fill="#005A9C"/>
<path fill-rule="evenodd" clip-rule="evenodd" d="M138.831 45.8216C138.785 46.363 138.681 46.9515 138.577 47.5441C138.471 48.1455 138.365 48.7512 138.316 49.3163H144.75C144.75 48.7911 144.841 48.2661 144.935 47.7264C145.034 47.1555 145.136 46.5681 145.136 45.9464H150.54C152.041 45.9464 153.13 45.5982 153.92 44.8568C154.989 43.8533 155.123 43.5301 155.324 41.7253C155.41 40.9448 155.519 40.135 155.63 39.3123C155.701 38.7891 155.772 38.2607 155.838 37.7314L156.33 33.715C156.33 32.2434 154.945 30.9691 153.499 30.9691H134.328C133.432 30.9691 132.326 31.5894 131.845 32.055C131.17 32.7102 130.863 33.4154 130.702 34.5662C130.575 35.4729 130.463 36.3926 130.349 37.3214C130.206 38.4969 130.061 39.687 129.881 40.8841C129.863 41.0047 129.844 41.1269 129.824 41.2503C129.557 42.9468 129.256 44.8538 131.635 45.6881C132.384 45.9501 135.373 45.8872 137.385 45.8448C137.98 45.8323 138.49 45.8216 138.831 45.8216ZM136.13 40.9538H139.604L140.247 35.8365H136.79L136.13 40.9538ZM149.253 40.954H145.779L146.439 35.8368H149.896L149.253 40.954Z" fill="#005A9C"/>
<path fill-rule="evenodd" clip-rule="evenodd" d="M182.449 44.4486H185.794L186.438 39.581H183.092L182.449 44.4486Z" fill="white"/>
</svg>
