<svg width="60" height="60" viewBox="0 0 60 60" fill="none" xmlns="http://www.w3.org/2000/svg">
<path d="M57.0287 56.1806H51.5377V57.1824H54.1529V60H53.3004H40.5128V57.1824H43.1234V56.1806H37.6356C36.7831 56.1806 36.0089 55.8337 35.4497 55.275C34.8921 54.7121 34.545 53.9405 34.545 53.0902V39.664C34.545 38.8114 34.8923 38.0376 35.4506 37.4786C36.0127 36.9211 36.7857 36.5725 37.6356 36.5725H57.0288C57.8786 36.5725 58.6515 36.9211 59.2117 37.4808C59.7728 38.0376 60.1201 38.8111 60.1201 39.6637V53.0899C60.1201 53.9402 59.7726 54.7118 59.2143 55.2715C58.655 55.8337 57.8811 56.1806 57.0287 56.1806ZM30.12 20.6243C26.5499 20.6243 23.0771 20.2804 19.8309 19.6266C19.3249 22.2235 18.9966 25.0722 18.9003 28.1252H41.3399C41.243 25.0722 40.9146 22.2223 40.4079 19.6249C37.1616 20.2788 33.6902 20.6243 30.12 20.6243ZM16.1774 18.7307C13.2657 17.8829 10.6065 16.7638 8.31178 15.4056C5.83594 19.094 4.26982 23.4412 3.9379 28.1254H15.1478C15.2453 24.8068 15.602 21.6498 16.1774 18.7307ZM10.6404 12.4229C12.5262 13.4912 14.6859 14.3846 17.0442 15.0846C18.1611 11.1092 19.7183 7.72272 21.5935 5.172C17.3469 6.63456 13.5899 9.1578 10.6404 12.4229ZM20.7009 15.9824C23.6591 16.567 26.8376 16.8745 30.12 16.8745C33.4008 16.8745 36.5808 16.567 39.5396 15.9824C37.3725 8.40324 33.6161 3.74976 30.12 3.74976C26.6246 3.74976 22.8673 8.40396 20.7009 15.9824ZM43.1957 15.0852C45.5552 14.3861 47.7162 13.4926 49.6005 12.4236C46.6514 9.15684 42.8943 6.63384 38.6468 5.17116C40.5223 7.72272 42.0789 11.1091 43.1957 15.0852ZM51.9287 15.4049C49.6337 16.763 46.9752 17.8814 44.063 18.7292C44.6379 21.6488 44.9939 24.8059 45.0917 28.1252H56.3025C55.97 23.4404 54.4046 19.093 51.9287 15.4049ZM31.9947 45.0347C31.3725 45.0118 30.7476 45.0005 30.12 45.0005C27.0618 45.0005 24.0696 45.2752 21.2559 45.796C23.4727 52.3168 26.9065 56.2505 30.12 56.2505H30.1488H30.1493C30.7604 56.246 31.9811 55.965 31.9811 55.965L31.9947 59.7772V59.9402C31.4225 59.9761 30.8462 59.9956 30.2672 59.9995H30.2393L30.2084 60H30.1799H30.1791H30.1494H30.1201C14.2081 60 1.15042 47.5453 0.179021 31.8738H0.119141V30.0005V28.1252H0.179021C1.15102 12.4531 14.2081 2.88857e-08 30.12 2.88857e-08C46.6611 -0.000719971 60.1201 13.4586 60.1201 30.0005C60.1201 30.6298 60.0985 31.2541 60.0593 31.8738H58.2445H56.3016H45.0908H41.3396H31.9946H18.9002C19.0184 35.6519 19.4936 39.1183 20.2207 42.1798C23.3687 41.5714 26.7126 41.2505 30.1199 41.2505C30.7472 41.2505 31.3717 41.2613 31.9946 41.2837L31.9947 45.0347ZM17.5709 46.6486C15.4987 47.2308 13.5691 47.958 11.8373 48.8179C14.5803 51.483 17.9009 53.5564 21.5929 54.828C19.9965 52.6568 18.6318 49.8799 17.5709 46.6486ZM9.26758 45.926C11.4344 44.7595 13.8967 43.7914 16.5605 43.0435C15.7595 39.645 15.2651 35.8768 15.1478 31.874H3.93682C4.31002 37.1353 6.23998 41.9717 9.26758 45.926ZM54.6644 48.7765V40.9404H53.442V48.7765H54.6644ZM51.6549 48.7765V40.9404H50.0925L48.8468 45.3229L47.6253 40.9404H46.0394V48.7765H47.2617V43.7832L48.624 48.7765H49.0587L50.4455 43.7832V48.7765H51.6549ZM44.0253 48.7765V40.9404H42.7915V44.2067H41.1353V40.9404H39.9137V48.7765H41.1353V45.2874H42.7915V48.7765H44.0253ZM45.5725 57.1824H49.0915V56.1806H45.5725V57.1824ZM57.6735 52.7154H36.9912V53.0902C36.9912 53.2687 37.0641 53.4312 37.1787 53.5472C37.2962 53.6611 37.4583 53.7344 37.6355 53.7344H57.0287C57.2063 53.7344 57.3678 53.6626 57.4842 53.5486C57.6017 53.4286 57.6735 53.2674 57.6735 53.0904V52.7154ZM36.9912 50.6663H57.6737V39.664C57.6737 39.4847 57.6017 39.3236 57.4871 39.2093C57.3689 39.0912 57.2082 39.0194 57.0288 39.0194H37.6353C37.4582 39.0194 37.2961 39.0923 37.1805 39.2083C37.0641 39.3229 36.9912 39.4847 36.9912 39.664V50.6663Z" fill="#004178"/>
</svg>
